**ABCDEFGHIJKLMNOPQRSTUVWXYZabcdefghijklmnopqrstuvwxyz**************************
**PARASOLID !"#$%&'()*+,-./:;<=>?@[\]^_`{|}~0123456789**************************
**PART1;
MC=x86;
MC_MODEL=x86 Family 6 Model 23 Stepping 6, GenuineIntel;
MC_ID=unknown;
OS=Windows_NT;
OS_RELEASE=unknown;
FRU=Parasolid Version 21.0, build 275, 11-13-2009;
APPL=SolidWorks 2010-2010018;
SITE=;
USER=unknown;
FORMAT=text;
GUISE=transmit;
KEY=Motor_Plate;
FILE=Motor_Plate.x_t;
DATE=Sun Oct 09 17:32:26 2011;
**PART2;
SCH=SCH_2100275_20000;
USFLD_SIZE=0;
**PART3;
**END_OF_HEADER*****************************************************************
T51 : TRANSMIT FILE created by modeller version 210027523 SCH_2100275_20000_1300
6186 0 12 27 CCCCCCCCCCCCCCCCCCCCCCCA16 index_map_offset0 0 1 dA9 index_map82 0
 A17 node_id_index_map82 0 A20 schema_embedding_map82 0 Z1 1263 2 3 0 0 0 0 1e3
 1e-8 0 4 0 1 0 1 1 5 6 7 8 9 10 11 0 0 0 0 81 255 3 2 697 12 1 13 0 0 0 14 15 1
6 70 11 CI9 list_type0 0 1 uI10 notransmit0 0 1 lCCCDCCDI12 finger_index0 0 1 dI
12 finger_block1012 0 CZ3 0 4 T1 0 0 3 20 1 17 17 13 255 5 94 0 1 0 18 0 0 19 0
 50 255 6 93 0 20 21 0 0 +.0889 -.0889 -.0254 -1 0 0 0 0 1 30 255 7 89 0 10 22 0
 0 +.0889 -693889390390723e-32 -.0254 0 0 -1 29 255 8 70 0 23 24 0 .0889 -.0889
 -.028575 19 255 9 28 0 1 19 0 25 V16 255 10 77 0 ?26 0 27 7 0 0 1 18 255 11 25
 0 28 0 29 30 ?1 17 255 28 0 31 32 33 11 34 35 0 36 +18 29 22 0 33 11 37 38 ?1 2
9 30 27 0 11 38 39 .0889 -.0889 -.0254 29 38 24 0 29 40 30 0 -.0889 -.0254 29 39
 73 0 41 30 42 .0889 -693889390390723e-32 -.028575 18 41 64 0 43 44 0 39 ?1 29 4
2 72 0 44 39 24 0 -693889390390723e-32 -.028575 18 44 63 0 45 46 41 42 ?1 29 24
 71 0 46 42 8 0 -.0889 -.028575 18 46 62 0 47 23 44 24 ?1 17 47 0 48 49 50 46 51
 52 0 53 +18 23 61 0 54 55 46 8 ?1 17 54 0 56 36 53 23 57 58 0 59 +18 55 16 0 60
 37 23 61 ?1 17 60 0 62 26 63 55 64 65 0 32 -18 37 19 0 64 29 55 40 ?1 29 61 18
 0 55 0 40 .0889 -693889390390723e-32 -.0254 29 40 21 0 37 61 38 0 -693889390390
723e-32 -.0254 17 64 0 31 33 32 37 60 65 0 63 +15 255 31 3 0 32 18 66 17 33 0 31
 28 64 29 67 68 0 49 +17 32 0 31 64 28 55 69 70 0 71 +16 65 7 0 ?64 68 70 72 0 0
 1 17 63 0 62 60 45 37 50 27 0 67 -15 62 82 0 45 73 0 17 45 0 62 63 26 44 43 74
 0 50 +17 50 0 48 47 67 44 63 27 0 51 +16 27 76 0 ?50 10 75 22 0 0 1 17 67 0 48
 50 49 37 33 68 0 0 -15 48 80 0 47 76 0 17 49 0 48 67 47 29 53 75 0 34 -16 68 10
 0 ?33 35 65 77 0 0 1 16 35 13 0 ?28 78 68 79 0 0 1 30 77 11 0 68 72 79 0 +0 -.0
889 -.0254 0 -1 0 30 72 8 0 65 80 77 0 +0 -693889390390723e-32 -.0254 -1 0 0 30
 79 14 0 35 77 81 0 +0 -.0889 -.0254 1 0 0 30 81 69 0 82 79 83 0 +.0889 -.0889 -
.028575 0 1 0 16 82 57 0 ?84 74 85 81 0 0 1 30 83 68 0 74 81 86 0 +0 -6938893903
90723e-32 -.028575 -1 0 0 16 74 53 0 ?45 52 82 83 0 0 1 30 86 67 0 52 83 87 0 +0
 -.0889 -.028575 0 -1 0 16 52 49 0 ?47 58 74 86 0 0 1 30 87 66 0 58 86 88 0 +0 -
.0889 -.028575 1 0 0 16 58 45 0 ?54 70 52 87 0 0 1 30 88 86 0 78 87 89 0 +.0889
 -.0889 -.0254 0 0 -1 16 78 74 0 ?59 75 35 88 0 0 1 30 89 87 0 75 88 22 0 +0 -.0
889 -.0254 0 0 -1 16 75 75 0 ?53 27 78 89 0 0 1 30 22 88 0 27 89 7 0 +0 -6938893
90390723e-32 -.0254 0 0 -1 17 53 0 56 54 34 46 49 75 0 57 +15 56 78 0 54 90 0 17
 34 0 56 53 36 29 28 35 0 0 -17 57 0 91 51 92 46 54 58 0 0 -15 91 44 0 92 93 94
 17 51 0 91 43 57 44 47 52 0 0 -17 92 0 91 57 43 23 84 82 0 0 -17 43 0 91 92 51
 41 45 74 0 26 -17 84 0 95 71 59 41 92 82 0 0 +15 95 84 0 84 20 0 17 71 0 95 69
 84 55 26 10 0 0 -17 59 0 95 84 69 23 36 78 0 92 +17 69 0 95 59 71 11 32 70 0 0
 -17 36 0 56 34 54 11 59 78 0 69 -16 70 4 0 ?32 65 58 80 0 0 1 30 80 5 0 70 96 7
2 0 +.0889 -.0889 -.0254 0 1 0 31 255 96 169 0 97 98 80 0 +.0127 -.0127 -.0254 0
 0 1 1 0 0 .00601891974300622 16 97 150 0 ?99 85 100 96 0 0 1 31 98 170 0 85 101
 96 0 +.0127 -.0127 -.028575 0 0 1 1 0 0 .00601891974300622 16 85 147 0 ?102 82
 97 98 0 0 1 31 101 215 0 103 104 98 0 +.0762 -.0127 -.0254 0 0 -1 -1 0 0 .00601
891974300622 16 103 193 0 ?105 100 106 101 0 0 1 31 104 216 0 100 107 101 0 +.07
62 -.0127 -.028575 0 0 -1 -1 0 0 .00601891974300622 16 100 196 0 ?108 97 103 104
 0 0 1 31 107 258 0 109 110 104 0 +.0762 -.0762 -.0254 0 0 1 -1 0 0 .00601891974
300622 16 109 239 0 ?111 106 112 107 0 0 1 31 110 259 0 106 113 107 0 +.0762 -.0
762 -.028575 0 0 1 -1 0 0 .00601891974300622 16 106 236 0 ?114 103 109 110 0 0 1
 31 113 296 0 115 116 110 0 +.0127 -.0762 -.0254 0 0 -1 1 0 0 .00601891974300622
 16 115 274 0 ?117 112 118 113 0 0 1 31 116 297 0 112 119 113 0 +.0127 -.0762 -.
028575 0 0 -1 1 0 0 .00601891974300622 16 112 277 0 ?120 109 115 116 0 0 1 31 11
9 349 0 121 122 116 0 +.04445 -.04445 -.0254 0 0 1 1 0 0 .00635 16 121 330 0 ?12
3 118 124 119 0 0 1 31 122 350 0 118 125 119 0 +.04445 -.04445 -.028575 0 0 1 1
 0 0 .00635 16 118 327 0 ?126 115 121 122 0 0 1 31 125 413 0 124 127 122 0 +.044
45 -.03195 -.028575 0 0 1 1 0 0 .0017 16 124 387 0 ?128 121 129 125 0 0 1 31 127
 414 0 129 130 125 0 +.04445 -.03195 -.02685 0 0 1 1 0 0 .0017 16 129 388 0 ?131
 124 132 127 0 0 1 31 130 415 0 132 133 127 0 +.04445 -.03195 -.0254 0 0 1 1 0 0
 .00315 16 132 386 0 ?134 129 135 130 0 0 1 31 133 468 0 135 136 130 0 +.0336246
824526945 -.0382 -.028575 0 0 1 1 0 0 .0017 16 135 442 0 ?137 132 138 133 0 0 1
 31 136 469 0 138 139 133 0 +.0336246824526945 -.0382 -.02685 0 0 1 1 0 0 .0017
 16 138 443 0 ?140 135 141 136 0 0 1 31 139 470 0 141 142 136 0 +.03362468245269
45 -.0382 -.0254 0 0 1 1 0 0 .00315 16 141 441 0 ?143 138 144 139 0 0 1 31 142 5
18 0 144 145 139 0 +.03362468245269455 -.0507 -.028575 0 0 1 1 0 0 .0017 16 144
 492 0 ?146 141 147 142 0 0 1 31 145 519 0 147 148 142 0 +.03362468245269455 -.0
507 -.02685 0 0 1 1 0 0 .0017 16 147 493 0 ?149 144 150 145 0 0 1 31 148 520 0 1
50 151 145 0 +.03362468245269455 -.0507 -.0254 0 0 1 1 0 0 .00315 16 150 491 0 ?
152 147 153 148 0 0 1 31 151 567 0 153 154 148 0 +.04445 -.05695 -.028575 0 0 1
 1 0 0 .0017 16 153 541 0 ?155 150 156 151 0 0 1 31 154 568 0 156 157 151 0 +.04
445 -.05695 -.02685 0 0 1 1 0 0 .0017 16 156 542 0 ?158 153 159 154 0 0 1 31 157
 569 0 159 160 154 0 +.04445 -.05695 -.0254 0 0 1 1 0 0 .00315 16 159 540 0 ?161
 156 162 157 0 0 1 31 160 616 0 162 163 157 0 +.0552753175473055 -.0507 -.028575
 0 0 1 1 0 0 .0017 16 162 590 0 ?164 159 165 160 0 0 1 31 163 617 0 165 166 160
 0 +.0552753175473055 -.0507 -.02685 0 0 1 1 0 0 .0017 16 165 591 0 ?167 162 168
 163 0 0 1 31 166 618 0 168 169 163 0 +.0552753175473055 -.0507 -.0254 0 0 1 1 0
 0 .00315 16 168 589 0 ?170 165 171 166 0 0 1 31 169 665 0 171 172 166 0 +.05527
53175473054 -.0382 -.028575 0 0 1 1 0 0 .0017 16 171 639 0 ?173 168 174 169 0 0
 1 31 172 666 0 174 175 169 0 +.0552753175473054 -.0382 -.02685 0 0 1 1 0 0 .001
7 16 174 640 0 ?176 171 177 172 0 0 1 31 175 667 0 177 0 172 0 +.055275317547305
4 -.0382 -.0254 0 0 1 1 0 0 .00315 16 177 638 0 ?178 174 0 175 0 0 1 17 178 0 17
9 178 178 0 180 177 0 0 +15 179 658 0 178 181 0 17 180 0 182 180 180 0 178 177 0
 0 -15 182 626 0 180 18 0 14 255 18 627 183 ?93 0 184 5 185 -0 0 93 0 25 81 1 18
3 1193 186 18 0 0 0 187 188 14 93 585 187 ?20 18 189 5 190 +0 0 20 18 25 15 184
 269 0 117 18 191 50 185 2 0 18 192 190 0 +.0889 -693889390390723e-32 -.0254 0 0
 -1 -1 0 0 13 25 29 0 0 0 0 0 0 9 18 51 255 192 166 0 193 194 185 0 +.0127 -.012
7 -.028575 0 0 1 .00601891974300622 1 0 0 50 190 65 0 93 185 195 0 +.0889 -69388
9390390723e-32 -.028575 0 0 -1 -1 0 0 50 195 90 0 90 190 196 0 +0 -.0889 -.0254
 0 1 0 0 0 1 14 90 79 197 ?193 76 56 5 195 -0 0 193 76 25 50 196 91 0 76 195 21
 0 +0 -.0889 -.0254 1 0 0 0 0 -1 14 76 81 198 ?90 73 48 5 196 -0 0 90 73 25 50 2
1 92 0 73 196 6 0 +0 -693889390390723e-32 -.0254 0 -1 0 0 0 -1 14 73 83 199 ?76
 20 62 5 21 -0 0 76 20 25 81 1 199 1196 186 73 0 0 200 198 201 14 20 85 200 ?73
 93 95 5 6 -0 0 73 93 25 81 1 200 1195 186 20 0 0 187 199 202 80 255 1 186 0 203
 8001 0 0 0 0 3 5 0 0 0 FFFFTFTFFFFFFF2 81 1 187 1194 186 93 0 0 183 200 204 83
 255 3 202 .796078431372549 .823529411764706 .937254901960784 83 3 204 .79607843
1372549 .823529411764706 .937254901960784 79 255 15 203 SDL/TYSA_COLOUR81 1 198
 1197 186 76 0 0 199 197 205 83 3 201 .796078431372549 .823529411764706 .9372549
01960784 81 1 197 1198 186 90 0 0 198 206 207 83 3 205 .796078431372549 .8235294
11764706 .937254901960784 81 1 206 1199 186 193 0 0 197 208 209 83 3 207 .796078
431372549 .823529411764706 .937254901960784 14 193 153 206 ?210 90 211 5 192 -0
 0 210 90 25 81 1 208 1200 186 210 0 0 206 212 213 83 3 209 .796078431372549 .82
3529411764706 .937254901960784 14 210 199 208 ?214 193 215 5 194 +0 0 214 193 25
 81 1 212 1201 186 214 0 0 208 216 217 83 3 213 .796078431372549 .82352941176470
6 .937254901960784 14 214 242 212 ?218 210 219 5 220 -0 0 218 210 25 81 1 216 12
02 186 218 0 0 212 221 222 83 3 217 .796078431372549 .823529411764706 .937254901
960784 14 218 280 216 ?223 214 224 5 225 +0 0 223 214 25 81 1 221 1203 186 223 0
 0 216 226 227 83 3 222 .796078431372549 .823529411764706 .937254901960784 14 22
3 333 221 ?228 218 229 5 230 -0 0 228 218 25 81 1 226 1204 186 228 0 0 221 231 2
32 83 3 227 .796078431372549 .823529411764706 .937254901960784 14 228 397 226 ?2
33 223 234 5 235 -0 0 233 223 25 81 1 231 1205 186 233 0 0 226 236 237 83 3 232
 .796078431372549 .823529411764706 .937254901960784 14 233 402 231 ?238 228 239
 5 240 -0 0 238 228 25 81 1 236 1206 186 238 0 0 231 241 242 83 3 237 .796078431
372549 .823529411764706 .937254901960784 14 238 452 236 ?243 233 244 5 245 -0 0
 243 233 25 81 1 241 1207 186 243 0 0 236 246 247 83 3 242 .796078431372549 .823
529411764706 .937254901960784 14 243 457 241 ?248 238 249 5 250 -0 0 248 238 25
 81 1 246 1208 186 248 0 0 241 251 252 83 3 247 .796078431372549 .82352941176470
6 .937254901960784 14 248 502 246 ?253 243 254 5 255 -0 0 253 243 25 81 1 251 12
09 186 253 0 0 246 256 257 83 3 252 .796078431372549 .823529411764706 .937254901
960784 14 253 507 251 ?258 248 259 5 260 -0 0 258 248 25 81 1 256 1210 186 258 0
 0 251 261 262 83 3 257 .796078431372549 .823529411764706 .937254901960784 14 25
8 551 256 ?263 253 264 5 265 -0 0 263 253 25 81 1 261 1211 186 263 0 0 256 266 2
67 83 3 262 .796078431372549 .823529411764706 .937254901960784 14 263 556 261 ?2
68 258 269 5 270 -0 0 268 258 25 81 1 266 1212 186 268 0 0 261 271 272 83 3 267
 .796078431372549 .823529411764706 .937254901960784 14 268 600 266 ?273 263 274
 5 275 -0 0 273 263 25 81 1 271 1213 186 273 0 0 266 276 277 83 3 272 .796078431
372549 .823529411764706 .937254901960784 14 273 605 271 ?278 268 279 5 280 -0 0
 278 268 25 81 1 276 1214 186 278 0 0 271 281 282 83 3 277 .796078431372549 .823
529411764706 .937254901960784 14 278 649 276 ?181 273 283 5 284 -0 0 181 273 25
 81 1 281 1215 186 181 0 0 276 0 285 83 3 282 .796078431372549 .823529411764706
 .937254901960784 14 181 654 281 ?0 278 286 5 287 -0 0 0 278 25 83 3 285 .796078
431372549 .823529411764706 .937254901960784 15 286 657 0 288 181 179 52 255 287
 664 0 181 0 284 0 +.0552753175473054 -.0382 -.0254 0 0 1 .00315 .70710678118654
8 .707106781186547 1 0 0 51 284 663 0 278 287 280 0 +.0552753175473054 -.0382 -.
0254 0 0 1 .0017 1 0 0 52 280 615 0 273 284 275 0 +.0552753175473055 -.0507 -.02
54 0 0 1 .00315 .707106781186548 .707106781186547 1 0 0 51 275 614 0 268 280 270
 0 +.0552753175473055 -.0507 -.0254 0 0 1 .0017 1 0 0 52 270 566 0 263 275 265 0
 +.04445 -.05695 -.0254 0 0 1 .00315 .707106781186548 .707106781186547 1 0 0 51
 265 565 0 258 270 260 0 +.04445 -.05695 -.0254 0 0 1 .0017 1 0 0 52 260 517 0 2
53 265 255 0 +.03362468245269455 -.0507 -.0254 0 0 1 .00315 .707106781186548 .70
7106781186547 1 0 0 51 255 516 0 248 260 250 0 +.03362468245269455 -.0507 -.0254
 0 0 1 .0017 1 0 0 52 250 467 0 243 255 245 0 +.0336246824526945 -.0382 -.0254 0
 0 1 .00315 .707106781186548 .707106781186547 1 0 0 51 245 466 0 238 250 240 0 +
.0336246824526945 -.0382 -.0254 0 0 1 .0017 1 0 0 52 240 412 0 233 245 235 0 +.0
4445 -.03195 -.0254 0 0 1 .00315 .707106781186548 .707106781186547 1 0 0 51 235
 411 0 228 240 230 0 +.04445 -.03195 -.0254 0 0 1 .0017 1 0 0 51 230 346 0 223 2
35 225 0 +.04445 -.04445 -.028575 0 0 1 .00635 1 0 0 51 225 293 0 218 230 220 0
 -.0127 -.0762 -.028575 0 0 1 .00601891974300622 1 0 0 51 220 255 0 214 225 194
 0 +.0762 -.0762 -.028575 0 0 1 .00601891974300622 1 0 0 51 194 212 0 210 220 19
2 0 -.0762 -.0127 -.028575 0 0 1 .00601891974300622 1 0 0 17 288 0 286 288 288 0
 176 174 0 0 -17 176 0 289 176 176 0 288 174 0 0 +15 289 653 0 176 278 0 15 283
 652 0 290 278 289 17 290 0 283 290 290 0 173 171 0 0 -17 173 0 189 173 173 0 29
0 171 0 0 +15 189 632 0 173 93 291 15 291 527 0 155 93 292 17 155 0 291 155 155
 0 293 153 0 0 +15 292 478 0 146 93 294 17 146 0 292 146 146 0 295 144 0 0 +15 2
94 428 0 137 93 296 17 137 0 294 137 137 0 297 135 0 0 +15 296 373 0 128 93 298
 17 128 0 296 128 128 0 299 124 0 0 +15 298 316 0 126 93 300 17 126 0 298 126 12
6 0 301 118 0 0 +15 300 181 0 302 93 303 17 302 0 300 302 302 0 108 100 0 0 -15
 303 136 0 102 93 91 17 102 0 303 102 102 0 304 85 0 0 +17 304 0 211 304 304 0 1
02 85 0 0 -15 211 156 0 304 193 305 15 305 157 0 99 193 0 17 99 0 305 99 99 0 30
6 97 0 0 +17 306 0 66 306 306 0 99 97 0 0 -15 66 141 0 306 18 307 15 307 188 0 1
05 18 308 17 105 0 307 105 105 0 309 103 0 0 +15 308 321 0 310 18 311 17 310 0 3
08 310 310 0 123 121 0 0 -15 311 379 0 312 18 313 17 312 0 311 312 312 0 134 132
 0 0 -15 313 434 0 314 18 315 17 314 0 313 314 314 0 143 141 0 0 -15 315 484 0 3
16 18 317 17 316 0 315 316 316 0 152 150 0 0 -15 317 533 0 318 18 319 17 318 0 3
17 318 318 0 161 159 0 0 -15 319 576 0 320 18 182 17 320 0 319 320 320 0 170 168
 0 0 -17 170 0 321 170 170 0 320 168 0 0 +15 321 609 0 170 273 0 17 161 0 322 16
1 161 0 318 159 0 0 +15 322 560 0 161 263 0 17 152 0 323 152 152 0 316 150 0 0 +
15 323 511 0 152 253 0 17 143 0 324 143 143 0 314 141 0 0 +15 324 461 0 143 243
 0 17 134 0 325 134 134 0 312 132 0 0 +15 325 406 0 134 233 0 17 123 0 326 123 1
23 0 310 121 0 0 +15 326 337 0 123 223 0 17 309 0 327 309 309 0 105 103 0 0 -15
 327 203 0 309 210 0 17 108 0 215 108 108 0 302 100 0 0 +15 215 202 0 108 210 32
7 17 301 0 229 301 301 0 126 118 0 0 -15 229 336 0 301 223 326 17 299 0 234 299
 299 0 128 124 0 0 -15 234 400 0 299 228 328 15 328 401 0 131 228 0 17 131 0 328
 131 131 0 329 129 0 0 +17 329 0 239 329 329 0 131 129 0 0 -15 239 405 0 329 233
 325 17 297 0 244 297 297 0 137 135 0 0 -15 244 455 0 297 238 330 15 330 456 0 1
40 238 0 17 140 0 330 140 140 0 331 138 0 0 +17 331 0 249 331 331 0 140 138 0 0
 -15 249 460 0 331 243 324 17 295 0 254 295 295 0 146 144 0 0 -15 254 505 0 295
 248 332 15 332 506 0 149 248 0 17 149 0 332 149 149 0 333 147 0 0 +17 333 0 259
 333 333 0 149 147 0 0 -15 259 510 0 333 253 323 17 293 0 264 293 293 0 155 153
 0 0 -15 264 554 0 293 258 334 15 334 555 0 158 258 0 17 158 0 334 158 158 0 335
 156 0 0 +17 335 0 269 335 335 0 158 156 0 0 -15 269 559 0 335 263 322 15 279 60
8 0 336 273 321 17 336 0 279 336 336 0 167 165 0 0 -17 167 0 337 167 167 0 336 1
65 0 0 +15 337 604 0 167 268 0 15 274 603 0 338 268 337 17 338 0 274 338 338 0 1
64 162 0 0 -17 164 0 339 164 164 0 338 162 0 0 +15 339 583 0 164 93 0 15 224 283
 0 120 218 340 17 120 0 224 120 120 0 341 112 0 0 +15 340 284 0 342 218 0 17 342
 0 340 342 342 0 117 115 0 0 -17 117 0 184 117 117 0 342 115 0 0 +17 341 0 343 3
41 341 0 120 112 0 0 -15 343 262 0 341 93 339 15 219 245 0 344 214 345 17 344 0
 219 344 344 0 114 106 0 0 -15 345 246 0 111 214 0 17 111 0 345 111 111 0 346 10
9 0 0 +17 346 0 191 346 346 0 111 109 0 0 -15 191 230 0 346 18 31 17 114 0 94 11
4 114 0 344 106 0 0 +15 94 225 0 114 93 343 83 3 188 .796078431372549 .823529411
764706 .937254901960784 17 26 0 62 45 60 41 71 10 0 84 +19 19 95 0 1 0 9 5 S74 4
 CI16 index_map_offset0 0 1 dCCZ20 17 3 0 0 13 2 281 0 0 0 0 0 0 0 0 0 0 0 0 0 0
 0 0 0 81 2 13 696 347 1 0 2 0 0 348 0 80 2 347 349 350 8004 0 0 0 0 3 5 0 0 0 F
FTFFFFFFFFFFF2 3 83 1 348 1e3 79 16 350 SDL/TYSA_DENSITY80 3 12 351 352 9000 0 1
 0 0 1 1 1 1 0 FFTFFFFFFFFFFF1 1 1 82 255 1 14 151008 82 1 15 154 82 17 16 15132
4 151470 151613 151747 151976 152365 152356 152697 152688 153021 153012 153344 1
53335 153666 153657 153988 153979 79 13 352 TempAxisFaces1 0 
