**ABCDEFGHIJKLMNOPQRSTUVWXYZabcdefghijklmnopqrstuvwxyz**************************
**PARASOLID !"#$%&'()*+,-./:;<=>?@[\]^_`{|}~0123456789**************************
**PART1;
MC=x86;
MC_MODEL=x86 Family 6 Model 23 Stepping 6, GenuineIntel;
MC_ID=unknown;
OS=Windows_NT;
OS_RELEASE=unknown;
FRU=Parasolid Version 19.1, build 315,  1-13-2009;
APPL=SolidWorks 2009-2009077;
SITE=;
USER=unknown;
FORMAT=text;
GUISE=transmit;
KEY=Horozontal_Flat_Plate;
FILE=Horozontal_Flat_Plate.x_t;
DATE=Tue Aug 10 19:48:54 2010;
**PART2;
SCH=SCH_1901315_19008;
USFLD_SIZE=0;
**PART3;
**END_OF_HEADER*****************************************************************
T51 : TRANSMIT FILE created by modeller version 190131523 SCH_1901315_19008_1300
6186 0 12 27 CCCCCCCCCCCCCCCCCCCCCCCA16 index_map_offset0 0 1 dA9 index_map82 0
 A17 node_id_index_map82 0 A20 schema_embedding_map82 0 Z1 3001 2 3 0 0 0 0 1e3
 1e-8 0 4 0 1 0 1 1 5 6 7 8 9 10 11 0 0 0 0 81 255 2 2 1103 12 1 0 0 0 0 13 0 70
 11 CI9 list_type0 0 1 uI10 notransmit0 0 1 lCCCDCCDI12 finger_index0 0 1 dI12 f
inger_block1012 0 CZ3 0 4 T1 0 0 2 20 1 14 14 13 255 5 94 0 1 0 15 0 0 16 0 51 2
55 6 991 0 17 18 0 0 +.06731 .06604 -.02667 0 0 -1 .00635 -1 0 0 31 255 7 945 0
 10 19 0 0 -.06731 .06604 -.03175 0 0 -1 -1 0 0 .00635 29 255 8 919 0 11 20 0 .0
6731 .07239 -.03175 19 255 9 28 0 1 16 0 21 V16 255 10 938 0 ?22 0 23 7 0 0 1 18
 255 11 917 0 24 0 25 8 ?1 17 255 24 0 26 27 28 11 29 30 0 31 +18 25 914 0 32 11
 33 20 ?1 17 32 0 34 35 36 25 37 23 0 28 +18 33 897 0 38 25 39 40 ?1 29 20 916 0
 25 40 8 .06731 .07239 -.00635 29 40 899 0 33 41 20 .06096 .02286 -.03175 29 41
 896 0 39 42 40 .06096 .06604 -.03175 18 39 894 0 22 33 43 41 ?1 29 42 893 0 43
 44 41 .06096 .02286 -.00635 18 43 891 0 45 39 46 42 ?1 29 44 890 0 46 47 42 .06
096 .06604 -.00635 18 46 888 0 37 43 48 44 ?1 29 47 881 0 48 49 44 .06731 .01651
 -.03175 18 48 879 0 50 46 51 47 ?1 29 49 878 0 51 52 47 .06731 .01651 -.00635 1
8 51 876 0 53 48 54 49 ?1 29 52 323 0 54 55 49 .0889 .07239 -.00635 18 54 321 0
 56 51 57 52 ?1 29 55 70 0 58 59 52 .0889 0 -.03175 18 58 61 0 60 61 62 55 ?1 29
 59 71 0 62 63 55 0 0 -.03175 18 62 62 0 64 58 65 59 ?1 29 63 72 0 65 66 59 0 .0
889 -.03175 18 65 63 0 67 62 68 63 ?1 29 66 73 0 68 69 63 .0889 .0889 -.03175 18
 68 64 0 70 65 71 66 ?1 29 69 27 0 57 72 66 .0889 0 -.00635 18 57 25 0 73 54 74
 69 ?1 29 72 24 0 74 75 69 0 0 -.00635 18 74 22 0 76 57 77 72 ?1 29 75 21 0 77 7
8 72 0 .0889 -.00635 18 77 19 0 79 74 61 75 ?1 29 78 18 0 61 80 75 .0889 .0889 -
.00635 18 61 16 0 81 77 58 78 ?1 29 80 166 0 71 82 78 .0687353344182344 .079375
 -.01905 18 71 144 0 83 68 84 80 ?1 29 82 206 0 84 85 80 .0687353344182344 .0095
25 -.01905 18 84 184 0 86 71 87 82 ?1 29 85 490 0 88 89 82 -693889390390723e-32
 .0635 -.00635 18 88 424 0 90 87 91 85 ?1 29 89 491 0 91 92 85 .06096 .0635 -.00
635 18 91 426 0 93 88 94 89 ?1 29 92 496 0 87 95 89 -693889390390723e-32 .0635 -
.02667 18 87 421 0 96 84 88 92 ?1 29 95 673 0 97 98 92 .0889 .01651 -.00635 18 9
7 602 0 99 100 101 95 ?1 29 98 675 0 101 102 95 .06096 .0254 -.00635 18 101 605
 0 103 97 104 98 ?1 29 102 676 0 104 105 98 -693889390390723e-32 .0254 -.00635 1
8 104 606 0 106 101 107 102 ?1 29 105 681 0 94 108 102 .06096 .0254 -.02667 18 9
4 610 0 109 91 100 105 ?1 29 108 682 0 100 110 105 -693889390390723e-32 .0254 -.
02667 18 100 611 0 111 94 97 108 ?1 29 110 835 0 107 112 108 .06096 .0635 -.0266
7 18 107 784 0 113 104 114 110 ?1 29 112 841 0 114 115 110 .0889 .07239 -.03175
 18 114 785 0 116 107 117 112 ?1 29 115 842 0 117 118 112 .0889 .01651 -.03175 1
8 117 787 0 119 114 120 115 ?1 29 118 1052 0 120 121 115 .02099948930863015 .076
2 -.01905 18 120 1030 0 122 117 123 118 ?1 29 121 1093 0 123 0 118 .020999489308
63015 .0127 -.01905 18 123 1071 0 124 120 0 121 ?1 17 124 0 125 124 124 123 0 0
 0 0 ?15 255 125 1079 0 124 126 127 14 255 126 1076 128 ?129 130 125 5 131 -0 0
 129 130 21 15 127 1080 0 132 126 0 17 132 0 127 132 132 0 133 134 0 0 +17 133 0
 135 133 133 0 132 134 0 0 -16 134 1070 0 ?132 136 137 138 0 0 1 16 136 1028 0 ?
139 140 134 141 0 0 1 16 137 1069 0 ?142 134 0 143 0 0 1 31 138 1091 0 134 143 1
41 0 +.01778 .0127 -.01905 -1 0 0 0 0 1 .00535813 31 143 1092 0 137 0 138 0 +0 .
0127 -.01905 -1 0 0 0 0 1 .00535813 31 141 1051 0 136 138 144 0 +0 .0762 -.01905
 -1 0 0 0 0 1 .00535813 31 144 1050 0 140 141 145 0 +.01778 .0762 -.01905 -1 0 0
 0 0 1 .00535813 16 140 1029 0 ?146 147 136 144 0 0 1 30 255 145 833 0 148 144 1
49 0 +.06096 .07239 -.03175 1862623632043815e-31 -1 0 16 148 895 0 ?150 151 147
 145 0 0 1 30 149 832 0 151 145 152 0 +.06096 .01651 -.03175 1 0 0 16 151 880 0
 ?119 153 148 149 0 0 1 30 152 830 0 153 149 154 0 +.06096 .07239 -.03175 -1 0 0
 16 153 752 0 ?31 155 151 152 0 0 1 30 154 829 0 147 152 156 0 +.06096 .07239 -.
02667 1862623632043815e-31 -1 0 16 147 767 0 ?109 148 140 154 0 0 1 30 156 669 0
 157 154 158 0 +-693889390390723e-32 .0254 -.02667 -1 0 0 16 157 596 0 ?159 160
 161 156 0 0 1 30 158 663 0 155 156 162 0 +-693889390390723e-32 .0254 -.00635 -1
 0 0 16 155 576 0 ?163 164 153 158 0 0 1 30 162 662 0 164 158 165 0 +.06096 .025
4 -.00635 0 1 0 16 164 892 0 ?103 161 155 162 0 0 1 30 165 661 0 161 162 166 0 +
.06096 .01651 -.00635 -1 0 0 16 161 568 0 ?167 157 164 165 0 0 1 30 166 658 0 16
8 165 169 0 +.0889 .01651 -.02667 0 0 1 16 168 571 0 ?170 171 172 166 0 0 1 30 1
69 656 0 172 166 173 0 +.06096 .0254 -.02667 0 0 1 16 172 579 0 ?174 168 160 169
 0 0 1 30 173 655 0 160 169 175 0 +-693889390390723e-32 .0254 -.02667 0 0 1 16 1
60 583 0 ?106 172 157 173 0 0 1 30 175 484 0 176 173 177 0 +-693889390390723e-32
 .0635 -.02667 -1 0 0 16 176 385 0 ?178 179 180 175 0 0 1 30 177 483 0 179 175 1
81 0 +-693889390390723e-32 .04445 -.02667 0 -1 0 16 179 381 0 ?111 182 176 177 0
 0 1 30 181 480 0 171 177 183 0 +.06096 .07239 -.00635 -1 0 0 16 171 407 0 ?28 1
84 168 181 0 0 1 30 183 479 0 184 181 185 0 +.06096 .0635 -.00635 0 -1 0 16 184
 889 0 ?93 180 171 183 0 0 1 30 185 478 0 180 183 186 0 +-693889390390723e-32 .0
635 -.00635 -1 0 0 16 180 413 0 ?90 176 184 185 0 0 1 30 186 475 0 187 185 188 0
 +-693889390390723e-32 .0635 -.02667 0 0 1 16 187 388 0 ?189 190 191 186 0 0 1 3
0 188 474 0 191 186 192 0 +.06096 .0635 -.02667 0 0 1 16 191 392 0 ?193 187 182
 188 0 0 1 30 192 472 0 182 188 194 0 +.0889 .07239 -.02667 0 0 1 16 182 400 0 ?
56 191 179 192 0 0 1 31 194 304 0 190 192 195 0 +.03175 .0127 -.00635 0 0 1 1 0
 0 .00635 16 190 283 0 ?196 197 187 194 0 0 1 31 195 303 0 197 194 198 0 +.03175
 .0127 -.03175 0 0 1 1 0 0 .00635 16 197 284 0 ?199 200 190 195 0 0 1 31 198 258
 0 200 195 201 0 +.03175 .0762 -.00635 0 0 1 1 0 0 .00635 16 200 237 0 ?202 203
 197 198 0 0 1 31 201 257 0 203 198 204 0 +.03175 .0762 -.03175 0 0 1 1 0 0 .006
35 16 203 238 0 ?205 206 200 201 0 0 1 31 204 205 0 206 201 207 0 +.0889 .009525
 -.01905 1 0 0 0 0 -1 .00396875 16 206 182 0 ?208 209 203 204 0 0 1 31 207 204 0
 209 204 210 0 +.07112 .009525 -.01905 1 0 0 0 0 -1 .00396875 16 209 183 0 ?211
 212 206 207 0 0 1 31 210 165 0 212 207 213 0 +.0889 .079375 -.01905 1 0 0 0 0 -
1 .00396875 16 212 142 0 ?214 215 209 210 0 0 1 31 213 164 0 215 210 216 0 +.071
12 .079375 -.01905 1 0 0 0 0 -1 .00396875 16 215 143 0 ?217 218 212 213 0 0 1 30
 216 5 0 219 213 220 0 +.0889 0 -.00635 0 1 0 16 219 4 0 ?221 222 223 216 223 22
3 1 30 220 8 0 222 216 224 0 +0 .0889 -.00635 -1 0 0 16 222 7 0 ?79 225 219 220
 0 0 1 30 224 11 0 226 220 227 0 +0 0 -.00635 0 -1 0 16 226 10 0 ?228 229 225 22
4 225 225 1 30 227 14 0 229 224 230 0 +0 0 -.00635 1 0 0 16 229 13 0 ?73 231 226
 227 0 0 1 30 230 69 0 232 227 233 0 +.0889 0 -.03175 0 1 0 16 232 57 0 ?234 235
 218 230 218 218 1 30 233 68 0 235 230 236 0 +0 .0889 -.03175 -1 0 0 16 235 53 0
 ?67 237 232 233 0 0 1 30 236 67 0 237 233 238 0 +0 0 -.03175 0 -1 0 16 237 49 0
 ?64 239 235 236 0 0 1 30 238 66 0 239 236 240 0 +0 0 -.03175 1 0 0 16 239 45 0
 ?60 223 237 238 0 0 1 30 240 86 0 231 238 241 0 +.0889 0 -.00635 0 0 -1 16 231
 74 0 ?242 243 229 240 0 0 1 30 241 87 0 243 240 244 0 +0 0 -.00635 0 0 -1 16 24
3 75 0 ?245 246 231 241 0 0 1 30 244 88 0 246 241 247 0 +0 .0889 -.00635 0 0 -1
 16 246 76 0 ?248 249 243 244 0 0 1 30 247 89 0 249 244 250 0 +.0889 .0889 -.006
35 0 0 -1 16 249 77 0 ?251 252 246 247 0 0 1 30 250 884 0 252 247 253 0 +.06731
 .01651 -.02667 0 0 1 16 252 882 0 ?254 255 249 250 0 0 1 30 253 902 0 255 250 2
56 0 +.06096 .06604 -.00635 0 0 1 16 255 900 0 ?257 258 252 253 0 0 1 30 256 909
 0 258 253 259 0 -.06096 .02286 -.02667 0 0 1 16 258 907 0 ?38 30 255 256 0 0 1
 30 259 922 0 30 256 260 0 -.06731 .07239 -.03175 0 0 1 16 30 920 0 ?24 261 258
 259 0 0 1 31 260 942 0 261 259 262 0 +.06731 .02286 -.00635 0 0 -1 -1 0 0 .0063
5 16 261 926 0 ?45 263 30 260 0 0 1 31 262 943 0 263 260 19 0 -.06731 .02286 -.0
3175 0 0 -1 -1 0 0 .00635 16 263 930 0 ?50 23 261 262 0 0 1 31 19 944 0 23 262 7
 0 +.06731 .06604 -.00635 0 0 -1 -1 0 0 .00635 16 23 934 0 ?32 10 263 19 0 0 1 1
7 50 0 264 119 150 48 265 263 0 266 +15 264 733 0 31 267 268 17 119 0 264 269 50
 117 266 151 0 270 +17 150 0 264 50 22 33 271 148 0 265 +17 265 0 272 273 274 33
 50 263 0 0 -17 266 0 275 254 270 48 119 151 0 274 -15 275 625 0 266 276 0 17 25
4 0 275 99 266 51 274 252 0 167 +17 270 0 275 266 99 117 170 168 0 234 -17 274 0
 272 265 53 48 254 252 0 0 -15 272 959 0 265 277 0 17 53 0 272 274 273 51 45 261
 0 254 -17 273 0 272 53 265 43 38 258 0 0 -17 45 0 278 103 167 43 53 261 0 279 +
15 278 555 0 167 280 0 17 103 0 278 163 45 101 279 164 0 174 +17 167 0 278 45 22
1 51 99 161 0 0 +17 279 0 281 38 174 43 103 164 0 273 -15 281 446 0 279 282 0 17
 38 0 281 271 279 33 273 258 0 150 +17 174 0 281 279 109 101 283 172 0 284 +17 1
09 0 281 174 285 94 113 147 0 283 +17 283 0 286 159 284 94 174 172 0 287 -17 284
 0 286 283 106 101 163 155 0 0 -15 286 633 0 284 288 0 17 106 0 286 284 159 104
 289 160 0 163 +17 163 0 278 76 103 104 284 155 0 290 +17 76 0 278 73 163 74 290
 225 0 291 +17 290 0 292 289 291 104 76 225 0 0 -15 292 530 0 289 293 0 17 289 0
 292 294 290 100 106 160 0 0 -17 291 0 292 290 64 74 245 243 0 295 -16 225 523 0
 ?76 226 222 224 226 226 1 17 64 0 292 291 248 62 296 237 0 245 +17 245 0 297 60
 295 62 291 243 0 298 +17 295 0 297 245 299 74 73 229 0 0 -15 297 78 0 60 300 0
 17 299 0 297 295 60 57 242 231 0 301 -17 73 0 278 221 76 57 295 229 0 299 +17 2
21 0 278 167 73 97 301 219 0 0 +17 301 0 302 242 170 57 221 219 0 0 -15 302 542
 0 234 303 0 17 242 0 302 234 301 58 299 231 0 269 +17 170 0 302 301 234 97 270
 168 0 221 +17 234 0 302 170 242 117 269 232 0 0 +17 269 0 264 298 119 58 234 23
2 0 0 -17 298 0 264 296 269 62 60 239 0 0 -17 296 0 264 304 298 65 64 237 0 0 -1
7 60 0 297 299 245 58 298 239 0 242 +17 304 0 264 305 296 68 67 235 0 251 -17 30
5 0 264 31 304 114 70 218 0 0 -17 67 0 306 307 251 65 304 235 0 248 +17 251 0 30
6 67 308 68 309 249 0 0 +15 306 82 0 67 310 0 17 308 0 306 251 307 61 79 222 0 3
09 -17 309 0 311 312 70 61 251 249 0 0 -15 311 738 0 116 15 0 17 312 0 311 116 3
09 54 81 223 0 0 -17 70 0 311 309 116 68 305 218 0 304 +17 116 0 311 70 312 114
 56 182 0 27 -16 218 722 0 ?70 232 215 230 232 232 1 17 56 0 26 28 27 54 116 182
 0 35 +17 27 0 26 56 24 114 31 153 0 305 -15 26 450 0 28 313 0 17 31 0 264 22 30
5 11 27 153 0 314 +17 22 0 264 150 31 39 314 10 0 271 +17 314 0 315 29 316 11 22
 10 0 0 -15 315 980 0 314 17 0 17 29 0 315 37 314 25 24 30 0 0 -17 316 0 315 314
 37 39 257 255 0 0 -17 37 0 315 316 29 46 32 23 0 257 -17 257 0 281 93 271 46 31
6 255 0 36 +17 93 0 281 285 257 91 36 184 0 193 +17 271 0 281 257 38 39 150 148
 0 316 -17 36 0 34 32 317 46 93 184 0 0 -15 34 3 0 228 318 0 17 317 0 34 36 228
 91 90 180 0 0 -17 228 0 34 317 79 88 319 226 0 0 +17 90 0 320 96 193 88 317 180
 0 189 +15 320 442 0 90 321 0 17 96 0 320 322 90 87 189 187 0 178 -17 193 0 320
 90 322 91 285 191 0 317 +17 189 0 292 319 294 88 96 187 0 228 +17 319 0 292 248
 189 77 228 226 0 0 -17 294 0 292 189 289 87 111 179 0 0 -17 111 0 323 287 178 1
00 294 179 0 159 +15 323 457 0 287 324 0 17 287 0 323 113 111 94 159 157 0 0 -17
 178 0 323 111 113 87 322 176 0 294 +17 159 0 286 106 283 100 287 157 0 289 +17
 113 0 323 178 287 107 109 147 0 285 -17 322 0 320 193 96 107 178 176 0 0 -17 28
5 0 281 109 93 107 193 191 0 322 -14 324 455 325 ?276 313 323 5 326 -0 0 276 313
 21 81 1 325 2936 327 324 0 0 328 329 330 14 276 622 329 ?288 324 275 5 331 +0 0
 288 324 21 14 313 447 328 ?324 282 26 5 332 -0 0 324 282 21 50 255 326 470 0 32
4 333 334 0 +-693889390390723e-32 .04445 -.02667 0 0 -1 -1 0 0 13 21 29 0 0 0 0
 0 0 9 15 14 15 740 335 ?280 0 336 5 337 -303 303 280 0 21 81 1 335 2919 327 15
 0 0 0 338 339 14 280 557 338 ?303 15 340 5 341 -318 318 303 15 21 15 336 135 0
 342 15 311 50 337 93 0 303 343 18 0 +.0889 0 -.00635 -1 0 0 0 0 1 14 303 544 34
4 ?293 280 345 5 337 -15 15 293 280 21 81 1 344 2921 327 303 0 0 338 346 347 14
 293 532 346 ?310 303 348 5 349 -0 0 310 303 21 15 345 175 0 350 303 302 17 350
 0 345 350 350 0 208 206 0 0 -17 208 0 351 208 208 0 350 206 0 0 +15 351 198 0 2
08 352 0 14 352 194 353 ?354 355 356 5 357 -0 0 354 355 21 81 1 353 2930 327 352
 0 0 358 359 360 14 354 247 359 ?361 352 362 5 363 -0 0 361 352 21 14 355 189 35
8 ?352 364 365 5 366 -0 0 352 364 21 15 356 197 0 367 352 351 51 357 203 0 352 3
63 366 0 +.0889 .009525 -.01905 1 0 0 .00396875 0 0 -1 51 363 256 0 354 368 357
 0 +.03175 .0762 -.00635 0 0 1 .00635 1 0 0 52 255 366 202 0 355 357 369 0 +.071
12 .009525 -.01905 1 0 0 .00396875 .857167300702112 .515038074910055 0 0 -1 51 3
69 163 0 364 366 370 0 +.0889 .079375 -.01905 1 0 0 .00396875 0 0 -1 14 364 154
 371 ?355 372 373 5 369 -0 0 355 372 21 52 370 162 0 372 369 341 0 +.07112 .0793
75 -.01905 1 0 0 .00396875 .857167300702112 .515038074910056 0 0 -1 14 372 149 3
74 ?364 267 375 5 370 -0 0 364 267 21 50 341 2 0 318 370 376 0 +.0889 .0889 -.00
635 0 0 -1 -1 0 0 14 318 1 377 ?267 300 378 5 341 -280 280 267 300 21 50 376 65
 0 267 341 379 0 +.0889 .0889 -.03175 0 0 -1 -1 0 0 14 267 43 380 ?372 318 264 5
 376 +0 0 372 318 21 50 379 90 0 300 376 349 0 +0 0 -.00635 0 1 0 0 0 1 14 300 7
9 381 ?318 310 297 5 379 -0 0 318 310 21 50 349 91 0 293 379 343 0 +0 0 -.00635
 1 0 0 0 0 -1 50 343 92 0 310 349 337 0 +0 .0889 -.00635 0 -1 0 0 0 -1 14 310 83
 382 ?300 293 306 5 343 -0 0 300 293 21 81 1 382 2923 327 310 0 0 346 381 383 80
 255 1 327 0 384 8001 0 0 0 0 3 5 0 0 0 FFFFTFTFFFFFFF2 81 1 346 2922 327 293 0
 0 344 382 385 81 1 381 2924 327 300 0 0 382 377 386 83 255 3 383 .9882352941176
47 .737254901960784 .517647058823529 81 1 377 2925 327 318 0 0 381 380 387 83 3
 386 .988235294117647 .737254901960784 .517647058823529 81 1 380 2926 327 267 0
 0 377 374 388 83 3 387 .988235294117647 .737254901960784 .517647058823529 81 1
 374 2927 327 372 0 0 380 371 389 83 3 388 .988235294117647 .737254901960784 .51
7647058823529 81 1 371 2928 327 364 0 0 374 358 390 83 3 389 .988235294117647 .7
37254901960784 .517647058823529 81 1 358 2929 327 355 0 0 371 353 391 83 3 390 .
988235294117647 .737254901960784 .517647058823529 83 3 391 .988235294117647 .737
254901960784 .517647058823529 83 3 385 .988235294117647 .737254901960784 .517647
058823529 79 255 15 384 SDL/TYSA_COLOUR15 378 230 0 392 318 34 17 392 0 378 392
 392 0 202 200 0 0 -17 202 0 393 202 202 0 392 200 0 0 +15 393 251 0 202 354 0 1
5 375 152 0 83 372 394 17 83 0 375 83 83 71 0 0 0 0 ?15 394 153 0 217 372 0 17 2
17 0 394 217 217 0 395 215 0 0 +17 395 0 373 395 395 0 217 215 0 0 -15 373 157 0
 395 364 396 15 396 158 0 214 364 0 17 214 0 396 214 214 0 342 212 0 0 +17 342 0
 336 342 342 0 214 212 0 0 -51 368 302 0 361 332 363 0 +.03175 .0127 -.00635 0 0
 1 .00635 1 0 0 14 361 293 397 ?321 354 398 5 368 -0 0 321 354 21 50 332 465 0 3
13 399 368 0 +.06096 .07239 -.02667 0 1 0 0 0 1 50 399 466 0 282 334 332 0 +.060
96 .0635 -.02667 -1 0 0 0 0 1 14 282 443 400 ?313 321 281 5 399 -0 0 313 321 21
 50 334 467 0 321 326 399 0 +-693889390390723e-32 .0635 -.02667 0 1 0 0 0 1 14 3
21 439 401 ?282 361 320 5 334 -0 0 282 361 21 81 1 401 2933 327 321 0 0 397 400
 402 81 1 397 2932 327 361 0 0 359 401 403 81 1 400 2934 327 282 0 0 401 328 404
 83 3 402 .988235294117647 .737254901960784 .517647058823529 81 1 328 2935 327 3
13 0 0 400 325 405 83 3 404 .988235294117647 .737254901960784 .517647058823529 8
3 3 405 .988235294117647 .737254901960784 .517647058823529 81 1 359 2931 327 354
 0 0 353 397 406 83 3 403 .988235294117647 .737254901960784 .517647058823529 83
 3 406 .988235294117647 .737254901960784 .517647058823529 15 398 296 0 407 361 4
08 17 407 0 398 407 407 0 199 197 0 0 -15 408 297 0 196 361 0 17 196 0 408 196 1
96 0 409 190 0 0 +17 409 0 340 409 409 0 196 190 0 0 -15 340 276 0 409 280 278 1
7 199 0 268 199 199 0 407 197 0 0 +15 268 270 0 199 267 410 15 410 224 0 205 267
 0 17 205 0 410 205 205 0 411 203 0 0 +17 411 0 362 411 411 0 205 203 0 0 -15 36
2 250 0 411 354 393 17 367 0 356 367 367 0 211 209 0 0 -17 211 0 412 211 211 0 3
67 209 0 0 +15 412 193 0 211 355 0 15 365 192 0 86 355 412 17 86 0 365 86 86 84
 0 0 0 0 ?83 3 360 .988235294117647 .737254901960784 .517647058823529 15 348 106
2 0 413 293 414 17 413 0 348 413 413 0 142 137 0 0 -15 414 1021 0 415 293 292 17
 415 0 414 415 415 0 139 136 0 0 -17 139 0 416 139 139 0 415 136 0 0 +15 416 104
4 0 139 130 0 14 130 1040 417 ?126 418 419 5 420 -0 0 126 418 21 81 1 417 2942 3
27 130 0 0 421 128 422 14 418 1035 421 ?130 17 423 5 424 -0 0 130 17 21 15 419 1
043 0 425 130 416 51 420 1049 0 130 131 424 0 +0 .0762 -.01905 -1 0 0 .00535813
 0 0 1 52 131 1089 0 126 426 420 0 +.01778 .0127 -.01905 -1 0 0 .00535813 .85716
7300702112 .515038074910055 0 0 1 52 424 1048 0 418 420 331 0 +.01778 .0762 -.01
905 -1 0 0 .00535813 .857167300702112 .515038074910055 0 0 1 50 331 650 0 276 42
4 333 0 +.06096 .01651 -.02667 0 1 0 0 0 1 50 333 648 0 288 331 326 0 +-69388939
0390723e-32 .0254 -.02667 0 1 0 0 0 1 14 288 630 427 ?277 276 286 5 333 +0 0 277
 276 21 81 1 427 2938 327 288 0 0 329 428 429 14 277 958 428 ?17 288 272 5 18 -0
 0 17 288 21 81 1 428 2939 327 277 0 0 427 430 431 14 17 979 430 ?418 277 315 5
 6 -0 0 418 277 21 51 18 970 0 277 337 6 0 +.06731 .02286 -.02667 0 0 1 .00635 1
 0 0 81 1 430 2940 327 17 0 0 428 421 432 81 1 421 2941 327 418 0 0 430 417 433
 83 3 432 .988235294117647 .737254901960784 .517647058823529 83 3 433 .988235294
117647 .737254901960784 .517647058823529 83 3 431 .988235294117647 .737254901960
784 .517647058823529 81 1 329 2937 327 276 0 0 325 427 434 83 3 429 .98823529411
7647 .737254901960784 .517647058823529 83 3 434 .988235294117647 .73725490196078
4 .517647058823529 51 426 1090 0 129 0 131 0 +0 .0127 -.01905 -1 0 0 .00535813 0
 0 1 14 129 1081 435 ?0 126 135 5 426 -0 0 0 126 21 81 1 435 2944 327 129 0 0 12
8 0 436 15 135 1084 0 133 129 437 15 437 1085 0 142 129 0 17 142 0 437 142 142 0
 413 137 0 0 +81 1 128 2943 327 126 0 0 417 435 438 83 3 436 .988235294117647 .7
37254901960784 .517647058823529 83 3 438 .988235294117647 .737254901960784 .5176
47058823529 17 425 0 419 425 425 0 146 140 0 0 -17 146 0 439 146 146 0 425 140 0
 0 +15 439 1039 0 146 418 0 15 423 1038 0 122 418 439 17 122 0 423 122 122 120 0
 0 0 0 ?83 3 422 .988235294117647 .737254901960784 .517647058823529 81 1 338 292
0 327 280 0 0 335 344 440 83 3 347 .988235294117647 .737254901960784 .5176470588
23529 83 3 440 .988235294117647 .737254901960784 .517647058823529 83 3 339 .9882
35294117647 .737254901960784 .517647058823529 83 3 330 .988235294117647 .7372549
01960784 .517647058823529 17 248 0 292 64 319 65 307 246 0 296 +17 307 0 306 308
 67 77 248 246 0 319 -17 79 0 34 228 81 77 308 222 0 307 +17 81 0 34 79 35 61 31
2 223 0 308 +17 35 0 34 81 32 54 28 171 0 312 -16 223 322 0 ?81 219 239 216 219
 219 1 17 28 0 26 24 56 25 35 171 0 29 +17 99 0 275 270 254 97 167 161 0 170 -19
 16 95 0 1 0 9 5 S74 4 CI16 index_map_offset0 0 1 dCCZ20 14 2 0 0 2 435 0 0 0 0
 0 0 0 0 0 0 0 0 0 0 0 0 0 0 80 2 12 441 442 8004 0 0 0 0 3 5 0 0 0 FFTFFFFFFFFF
FF2 3 83 1 13 27e2 79 16 442 SDL/TYSA_DENSITY1 0 
