**ABCDEFGHIJKLMNOPQRSTUVWXYZabcdefghijklmnopqrstuvwxyz**************************
**PARASOLID !"#$%&'()*+,-./:;<=>?@[\]^_`{|}~0123456789**************************
**PART1;
MC=x86;
MC_MODEL=x86 Family 6 Model 23 Stepping 6, GenuineIntel;
MC_ID=unknown;
OS=Windows_NT;
OS_RELEASE=unknown;
FRU=Parasolid Version 19.1, build 315,  1-13-2009;
APPL=SolidWorks 2009-2009077;
SITE=;
USER=unknown;
FORMAT=text;
GUISE=transmit;
KEY=Large_Hole_Plate;
FILE=Large_Hole_Plate.x_t;
DATE=Tue Aug 10 19:24:52 2010;
**PART2;
SCH=SCH_1901315_19008;
USFLD_SIZE=0;
**PART3;
**END_OF_HEADER*****************************************************************
T51 : TRANSMIT FILE created by modeller version 190131523 SCH_1901315_19008_1300
6186 0 12 27 CCCCCCCCCCCCCCCCCCCCCCCA16 index_map_offset0 0 1 dA9 index_map82 0
 A17 node_id_index_map82 0 A20 schema_embedding_map82 0 Z1 1565 2 3 0 0 0 0 1e3
 1e-8 0 4 0 1 0 1 1 5 6 7 8 9 10 11 0 0 0 0 81 255 2 2 1221 12 1 0 0 0 0 13 0 70
 11 CI9 list_type0 0 1 uI10 notransmit0 0 1 lCCCDCCDI12 finger_index0 0 1 dI12 f
inger_block1012 0 CZ3 0 4 T1 0 0 2 20 1 14 14 13 255 5 94 0 1 0 15 0 0 16 0 51 2
55 6 1200 0 17 18 0 0 +.070485 .060325 -.01905 0 0 -1 .003175 -1 0 0 31 255 7 11
57 0 10 19 0 0 -.070485 .060325 -.01905 0 0 -1 -1 0 0 .003175 29 255 8 1132 0 11
 20 0 .06731 .060325 -.01905 19 255 9 28 0 1 16 0 21 V16 255 10 1150 0 ?22 0 23
 7 0 0 1 18 255 11 1130 0 24 0 25 8 ?1 17 255 24 0 26 27 28 11 29 30 0 31 +18 25
 1127 0 32 11 33 20 ?1 17 32 0 34 35 36 25 37 23 0 28 +18 33 1119 0 22 25 38 39
 ?1 29 20 1129 0 25 39 8 .06731 .060325 -.00635 29 39 1121 0 33 40 20 .070485 .0
5715 -.01905 29 40 1118 0 38 41 39 .070485 .05715 -.00635 18 38 1116 0 37 33 42
 40 ?1 29 41 1110 0 42 43 40 .070485 .03175 -.01905 18 42 1108 0 44 38 45 41 ?1
 29 43 1107 0 45 46 41 .070485 .03175 -.00635 18 45 1105 0 47 42 48 43 ?1 29 46
 1099 0 48 49 43 .06731 .028575 -.01905 18 48 1097 0 50 45 51 46 ?1 29 49 1096 0
 51 52 46 .06731 .028575 -.00635 18 51 1094 0 53 48 54 49 ?1 29 52 650 0 54 55 4
9 .02607684513349295 .01840280151994775 -.00635 18 54 648 0 56 51 57 52 ?1 29 55
 530 0 57 58 52 .02436719567152345 .0699376768379531 -.00635 18 57 528 0 59 54 6
0 55 ?1 29 58 190 0 60 61 55 .0607774430286064 .044958 -.00635 18 60 189 0 62 57
 63 58 ?1 29 61 188 0 63 64 58 .0607774430286064 .043942 -.01905 18 63 186 0 65
 60 66 61 ?1 29 64 71 0 67 68 61 0 0 -.01905 18 67 62 0 69 70 71 64 ?1 29 68 72
 0 71 72 64 0 .0889 -.01905 18 71 63 0 73 67 74 68 ?1 29 72 24 0 66 75 68 0 0 -.
00635 18 66 22 0 76 63 70 72 ?1 29 75 21 0 70 77 72 0 .0889 -.00635 18 70 19 0 7
8 66 67 75 ?1 29 77 388 0 74 79 75 .0607774430286064 .044958 -.01905 18 74 309 0
 80 71 81 77 ?1 29 79 389 0 81 82 77 .08255 .044958 -.01905 18 81 300 0 83 74 84
 79 ?1 29 82 390 0 84 85 79 .08255 .043942 -.01905 18 84 298 0 86 81 87 82 ?1 29
 85 392 0 87 88 82 .08255 .043942 -.00635 18 87 296 0 89 84 90 85 ?1 29 88 393 0
 90 91 85 .0607774430286064 .043942 -.00635 18 90 306 0 92 87 93 88 ?1 29 91 395
 0 93 94 88 .08255 .044958 -.00635 18 93 302 0 95 90 96 91 ?1 29 94 625 0 96 97
 91 .0260768451334929 .0704971984800522 -.00635 18 96 577 0 98 93 99 94 ?1 29 97
 627 0 99 100 94 .020514314242767 .0889 -.00635 18 99 576 0 101 96 102 97 ?1 29
 100 628 0 102 103 97 .023935685757233 .0889 -.00635 18 102 578 0 104 99 105 100
 ?1 29 103 746 0 105 106 100 .023935685757233 0 -.00635 18 105 696 0 107 102 108
 103 ?1 29 106 747 0 108 109 103 .020514314242767 0 -.00635 18 108 698 0 110 105
 111 106 ?1 29 109 748 0 111 112 106 .0243671956715235 .01896232316204685 -.0063
5 18 111 697 0 113 108 114 109 ?1 29 112 908 0 115 116 109 .08255 .05715 -.00635
 18 115 848 0 117 118 119 112 ?1 29 116 910 0 119 120 112 .06731 .0889 -.00635 1
8 119 850 0 121 115 122 116 ?1 29 120 912 0 114 123 116 .08255 .05715 -.01905 18
 114 851 0 124 111 118 120 ?1 29 123 914 0 118 125 120 .06731 .0889 -.01905 18 1
18 853 0 27 114 115 123 ?1 29 125 1071 0 126 127 123 .06731 0 -.00635 18 126 100
9 0 128 129 130 125 ?1 29 127 1073 0 130 131 125 .08255 .03175 -.00635 18 130 10
11 0 132 126 0 127 ?1 29 131 1075 0 122 133 127 .06731 0 -.01905 18 122 1013 0 1
34 119 129 131 ?1 29 133 1077 0 129 0 131 .08255 .03175 -.01905 18 129 1015 0 13
5 122 126 133 ?1 17 135 0 136 137 44 129 138 139 0 140 +15 255 136 1025 0 141 14
2 143 17 137 0 136 141 135 130 140 144 0 145 +17 44 0 136 135 141 42 146 147 0 1
38 +17 138 0 148 50 149 42 135 139 0 150 -16 139 1109 0 ?135 151 152 153 0 0 1 1
7 140 0 154 86 145 129 137 144 0 149 -15 154 965 0 140 155 0 17 86 0 154 156 140
 84 149 157 0 158 +17 145 0 154 140 156 130 89 159 0 0 -16 144 990 0 ?137 160 15
1 161 0 0 1 17 149 0 148 138 162 129 86 157 0 0 -15 148 787 0 138 163 0 17 162 0
 148 149 164 84 65 165 0 0 +16 157 939 0 ?86 166 167 168 167 167 1 16 166 777 0
 ?73 169 157 170 0 0 1 16 167 205 0 ?171 157 172 168 157 157 1 30 255 168 69 0 1
57 173 170 0 +.08255 0 -.01905 0 1 0 30 173 14 0 174 175 168 0 +0 0 -.00635 1 0
 0 30 170 68 0 166 168 176 0 +0 .0889 -.01905 -1 0 0 30 176 67 0 169 170 177 0 +
0 0 -.01905 0 -1 0 16 169 49 0 ?69 178 166 176 0 0 1 30 177 66 0 178 176 179 0 +
0 0 -.01905 1 0 0 16 178 45 0 ?180 181 169 177 0 0 1 30 179 87 0 182 177 183 0 +
0 0 -.00635 0 0 -1 16 182 75 0 ?184 185 174 179 0 0 1 30 183 88 0 185 179 186 0
 +0 .0889 -.00635 0 0 -1 16 185 76 0 ?187 188 182 183 0 0 1 30 186 195 0 188 183
 189 0 +.0607774430286064 .044958 -.01905 0 0 1 16 188 194 0 ?190 191 185 186 0
 0 1 30 189 198 0 191 186 192 0 -.0607774430286064 .043942 -.01905 0 0 1 16 191
 196 0 ?193 194 188 189 0 0 1 31 192 444 0 195 189 196 0 +.0762 .043942 -.0127 0
 -1 0 0 0 -1 .0033782 16 195 471 0 ?197 198 199 192 0 0 1 38 255 196 533 0 194 1
92 200 0 +201 202 203 204 205 16 194 531 0 ?206 207 191 196 0 0 1 38 200 653 0 2
07 196 208 0 +201 209 210 211 212 51 201 166 0 213 214 215 216 +.033655 .04445 -
.01905 0 0 1 .0271272 1 0 0 52 255 202 619 0 217 218 219 220 +.022225 .079375 -.
00635 0 0 1 .0096774 .766044443118978 .64278760968654 1 0 0 40 255 5 203 -.00577
007638537221 1.008693177781556 5 .00071780930638266 .3366510709447535 ??.0313311
8376660775 .071477483381799 -.004355989494692125 .027480586640068 .0708651774459
437 -.00607770096049315 .0260786610111607 .0704977267216583 -.0063498 .024365418
8414368 .0699370292842942 -.0063498 .02213746732043055 .0690107699556641 -.00577
337100782612 41 255 1 204 L.03133118376660775 .071477483381799 -.004355989494692
125 41 1 205 L.02213746732043055 .0690107699556641 -.00577337100782612 14 255 21
7 588 221 ?222 223 224 5 202 -0 0 222 223 21 51 218 738 0 225 209 202 0 +.022225
 .009525 -.00635 0 0 1 .0050419 1 0 0 51 219 618 0 222 202 226 0 +.022225 .07937
5 -.00635 0 0 1 .0050419 1 0 0 141 255 220 196 227 227 202 141 227 228 220 220 2
02 38 228 621 0 199 229 230 0 +231 202 232 233 234 16 199 572 0 ?235 195 236 228
 0 0 1 31 229 622 0 236 237 228 0 +.022225 .079375 -.01905 0 0 1 1 0 0 .0050419
 31 230 501 0 198 228 238 0 +.0762 .044958 -.0127 0 1 0 0 0 1 .0033782 50 255 23
1 92 0 239 240 241 242 +0 .0889 -.00635 0 -1 0 0 0 -1 40 7 232 0 1 7 .0037095106
33123295 .325587949514512 ??.00389609343160924 .0889 .00286222258830363 .0141166
404680498 .0889 -.00397413835999119 .01989141725076295 .0889 -.00624151004105648
 .02121218739719015 .0889 -.00643282260790638 .0250893246870766 .0889 -.00612431
98267971 .03098808583356175 .0889 -.0036099643070223 .0555418568821521 .0889 .01
46059049075208 41 1 233 L.00389609343160924 .0889 .00286222258830363 41 1 234 L.
0555418568821521 .0889 .0146059049075208 14 239 83 243 ?244 245 246 5 231 -0 0 2
44 245 21 50 240 91 0 244 247 231 0 +0 0 -.00635 1 0 0 0 0 -1 50 241 93 0 245 23
1 18 0 +.08255 0 -.00635 -1 0 0 0 0 1 141 242 228 242 242 231 14 245 85 248 ?239
 249 250 5 241 -155 155 239 249 21 51 18 1179 0 251 241 6 0 +.070485 .028575 -.0
1905 0 0 -1 .003175 -1 0 0 14 251 1167 252 ?17 253 254 5 18 -0 0 17 253 21 81 1
 252 1516 255 251 0 0 256 257 258 14 17 1188 257 ?0 251 259 5 6 -0 0 0 251 21 14
 253 1035 256 ?251 142 260 5 261 +0 0 251 142 21 15 254 1168 0 150 251 0 13 21 2
9 0 0 0 0 0 0 9 15 14 15 976 262 ?155 0 263 5 215 -249 264 155 0 21 81 1 262 149
4 255 15 0 0 0 265 266 14 155 967 265 ?267 15 154 5 241 -245 245 267 15 21 15 26
3 974 0 268 15 0 50 215 2 0 264 201 269 0 +.08255 .0889 -.00635 0 0 -1 -1 0 0 14
 249 552 270 ?245 264 34 5 215 -264 15 245 264 21 14 264 682 271 ?249 272 273 5
 215 -15 249 249 272 21 81 1 271 1499 255 264 0 0 274 270 275 14 272 936 274 ?26
4 163 276 5 226 -223 223 264 163 21 15 273 681 0 277 264 0 17 277 0 273 278 279
 111 110 280 0 281 -17 278 0 273 282 277 57 281 283 0 0 -17 279 0 273 277 76 108
 284 174 0 0 +17 110 0 285 107 113 108 277 280 0 286 +16 280 686 0 ?110 287 288
 289 288 288 1 17 281 0 290 291 206 111 278 283 0 0 +15 290 156 0 281 213 0 17 2
91 0 290 92 281 54 113 207 0 292 +17 206 0 290 281 293 57 98 194 0 278 +16 283 5
29 0 ?281 294 295 296 294 295 1 16 294 150 0 ?293 172 283 296 295 283 1 16 295 6
49 0 ?92 283 297 296 283 294 1 31 296 169 0 294 298 299 0 +.033655 .04445 -.0063
5 0 0 1 1 0 0 .0271272 31 298 170 0 172 300 296 0 +.033655 .04445 -.01905 0 0 1
 1 0 0 .0271272 30 299 5 0 159 296 301 0 +.08255 0 -.00635 0 1 0 16 159 962 0 ?8
9 302 181 299 181 181 1 30 301 8 0 303 299 175 0 +0 .0889 -.00635 -1 0 0 16 303
 792 0 ?104 304 302 301 302 302 1 30 175 11 0 304 301 173 0 +0 0 -.00635 0 -1 0
 16 304 10 0 ?76 305 303 175 0 0 1 17 76 0 273 279 78 66 306 304 0 307 +16 305 6
61 0 ?308 174 304 173 174 174 1 17 308 0 263 268 309 126 310 305 0 0 +16 174 13
 0 ?279 182 305 173 305 305 1 17 268 0 263 47 308 51 128 152 0 0 +17 309 0 263 3
08 292 105 56 288 0 310 -17 310 0 311 286 312 105 308 305 0 0 -15 311 957 0 312
 267 0 17 286 0 311 284 310 108 107 313 0 279 +17 312 0 311 310 180 126 134 160
 0 308 +17 180 0 311 312 184 122 314 178 0 0 +17 134 0 260 315 128 122 312 160 0
 316 -16 160 995 0 ?312 317 144 318 0 0 1 16 317 996 0 ?319 320 160 321 0 0 1 30
 318 1060 0 160 322 161 0 +.06731 0 -.01905 0 0 1 30 322 1063 0 152 323 318 0 +.
06731 0 -.00635 1092739197465704e-31 1 0 30 161 1058 0 144 318 324 0 +.08255 .03
175 -.01905 0 0 1 30 324 905 0 325 161 326 0 +.06731 .0889 -.01905 1092739197465
704e-31 -1 0 16 325 831 0 ?31 327 328 324 0 0 1 30 326 904 0 327 324 329 0 +.082
55 .05715 -.01905 1 113826999736011e-30 0 16 327 1120 0 ?124 330 325 326 0 0 1 3
0 329 901 0 320 326 331 0 +.06731 .0889 -.00635 1092739197465704e-31 -1 0 16 320
 841 0 ?28 328 317 329 0 0 1 30 331 900 0 328 329 332 0 +.08255 .05715 -.00635 1
 113826999736011e-30 0 16 328 1117 0 ?117 325 320 331 0 0 1 30 332 899 0 333 331
 334 0 +.08255 .05715 -.01905 0 0 1 16 333 820 0 ?335 336 330 332 0 0 1 30 334 8
97 0 330 332 289 0 +.06731 .0889 -.01905 0 0 1 16 330 825 0 ?121 333 327 334 0 0
 1 31 289 745 0 288 334 337 0 +.022225 .009525 -.00635 0 0 1 1 0 0 .0096774 16 2
88 688 0 ?56 280 336 289 280 280 1 31 337 744 0 287 289 338 0 +.022225 .009525 -
.01023964634032228 0 0 1 1 0 0 .0050419 16 287 691 0 ?339 340 280 337 0 0 1 31 3
38 743 0 340 337 341 0 +.022225 .009525 -.01905 0 0 1 1 0 0 .0050419 16 340 695
 0 ?342 313 287 338 0 0 1 38 341 742 0 313 338 343 0 -209 247 344 345 346 16 313
 692 0 ?286 347 340 341 0 0 1 31 343 624 0 347 341 237 0 +.022225 .079375 -.0063
5 0 0 1 1 0 0 .0096774 52 209 739 0 348 349 218 350 +.022225 .009525 -.00635 0 0
 1 .0096774 .766044443118978 .64278760968654 1 0 0 50 247 90 0 267 269 240 351 +
0 0 -.00635 0 1 0 0 0 1 40 7 344 0 1 7 .003709510633123295 .325587949514512 ??.0
0389609343160924 0 .00286222258830363 .0141166404680498 0 -.00397413835999119 .0
1989141725076295 0 -.00624151004105648 .02121218739719015 0 -.00643282260790638
 .0250893246870766 0 -.0061243198267971 .03098808583356175 0 -.0036099643070223
 .0555418568821521 0 .0146059049075208 41 1 345 L.00389609343160924 0 .002862222
58830363 41 1 346 L.0555418568821521 0 .0146059049075208 14 267 959 352 ?163 155
 311 5 247 -0 0 163 155 21 50 269 65 0 163 215 247 0 +.08255 .0889 -.01905 0 0 -
1 -1 0 0 141 351 341 351 351 247 14 163 951 353 ?272 267 354 5 269 +0 0 272 267
 21 81 1 353 1497 255 163 0 0 352 274 355 15 354 539 0 356 163 357 17 356 0 354
 356 356 0 358 236 0 0 +15 357 670 0 342 163 148 17 342 0 357 342 342 0 359 340
 0 0 +17 359 0 360 359 359 0 342 340 0 0 -15 360 728 0 359 225 361 14 225 725 36
2 ?363 348 360 5 218 -0 0 363 348 21 15 361 729 0 339 225 0 17 339 0 361 339 339
 0 364 287 0 0 +17 364 0 365 364 364 0 339 287 0 0 -15 365 711 0 364 348 285 14
 348 708 366 ?225 222 365 5 209 -0 0 225 222 21 15 285 712 0 56 348 0 17 56 0 28
5 113 107 54 309 288 0 291 +17 113 0 285 110 56 111 291 207 0 277 -17 107 0 285
 56 110 105 286 313 0 309 -16 207 651 0 ?291 367 194 200 0 0 1 16 367 1100 0 ?36
8 147 207 369 0 0 1 17 368 0 260 128 315 51 370 367 0 268 +16 147 1111 0 ?44 371
 367 372 0 0 1 30 369 1102 0 367 321 372 0 +.06731 .028575 -.00635 0 0 1 31 321
 935 0 317 208 369 0 -.0762 .03175 -.0127 -113826999736011e-30 -1 0 1 -113826999
736011e-30 0 .0033782 30 372 1113 0 147 369 373 0 -.070485 .03175 -.01905 0 0 1
 30 373 1124 0 371 372 374 0 +.070485 .05715 -.00635 0 0 1 16 371 1122 0 ?375 30
 147 373 0 0 1 30 374 1135 0 30 373 376 0 -.06731 .060325 -.01905 0 0 1 16 30 11
33 0 ?24 377 371 374 0 0 1 31 376 1154 0 377 374 378 0 +.070485 .028575 -.00635
 0 0 -1 -1 0 0 .003175 16 377 1138 0 ?47 379 30 376 0 0 1 31 378 1155 0 379 376
 19 0 -.070485 .028575 -.01905 0 0 -1 -1 0 0 .003175 16 379 1142 0 ?50 23 377 37
8 0 0 1 31 19 1156 0 23 378 7 0 +.070485 .060325 -.00635 0 0 -1 -1 0 0 .003175 1
6 23 1146 0 ?32 10 379 19 0 0 1 17 50 0 148 316 138 48 150 379 0 315 +17 316 0 1
48 314 50 122 315 151 0 180 -17 150 0 254 146 370 42 50 379 0 0 -17 315 0 260 36
8 134 48 316 151 0 370 +15 260 1038 0 315 253 0 16 151 1003 0 ?315 144 139 380 0
 0 1 17 370 0 254 150 53 48 368 367 0 0 -17 53 0 254 370 146 51 47 377 0 368 -17
 146 0 254 53 150 45 44 147 0 0 -17 47 0 263 132 268 45 53 377 0 141 +17 132 0 2
63 89 47 130 141 381 0 137 +17 141 0 136 44 137 45 132 381 0 146 -16 381 1106 0
 ?132 152 0 323 0 0 1 16 152 992 0 ?268 139 381 322 0 0 1 30 323 1064 0 381 380
 322 0 +.08255 .03175 -.00635 1 -113826999736011e-30 0 30 380 1067 0 151 153 323
 0 +.06731 0 -.01905 1092739197465704e-31 1 0 30 153 1068 0 139 0 380 0 +.08255
 .03175 -.01905 1 -113826999736011e-30 0 17 89 0 263 382 132 87 145 159 0 383 +1
7 382 0 263 292 89 90 383 384 0 0 -17 383 0 385 158 386 87 382 384 0 156 +15 385
 315 0 65 387 0 17 158 0 385 65 383 84 156 297 0 162 -17 386 0 385 383 65 90 193
 191 0 382 -16 384 258 0 ?383 388 389 390 0 0 1 17 156 0 154 145 86 87 158 297 0
 0 +16 297 239 0 ?156 295 391 300 0 0 1 16 391 245 0 ?392 297 165 393 0 0 1 30 3
00 370 0 297 393 298 0 +.08255 .043942 -.00635 0 0 1 30 393 371 0 391 390 300 0
 +.08255 .044958 -.00635 0 0 -1 30 390 380 0 384 394 393 0 +.0574317832729253 .0
43942 -.00635 1 0 0 30 394 382 0 389 395 390 0 +.0574317832729253 .044958 -.0063
5 -1 0 0 16 389 255 0 ?62 384 198 394 0 0 1 30 395 384 0 165 238 394 0 +.0574317
832729253 .043942 -.01905 1 0 0 16 165 236 0 ?162 391 388 395 0 0 1 30 238 386 0
 388 230 395 0 +.0574317832729253 .044958 -.01905 -1 0 0 16 388 246 0 ?396 165 3
84 238 0 0 1 17 396 0 148 164 397 74 83 388 0 398 +17 164 0 148 162 396 63 398 1
72 0 0 +17 397 0 148 396 124 81 171 167 0 0 -17 83 0 399 95 80 81 396 388 0 392
 -17 398 0 290 190 193 74 164 172 0 0 -17 190 0 290 293 398 60 80 188 0 400 +17
 193 0 290 398 92 63 386 191 0 164 +16 172 147 0 ?164 167 294 298 0 0 1 17 92 0
 290 193 291 90 292 295 0 386 +17 292 0 263 309 382 54 92 295 0 0 -17 293 0 290
 206 190 96 400 294 0 0 +17 80 0 399 83 62 74 190 188 0 396 -17 400 0 34 401 402
 60 293 294 0 0 -15 34 551 0 403 249 0 17 401 0 34 403 400 93 62 389 0 404 -17 4
02 0 34 400 104 96 405 347 0 293 -17 104 0 34 402 35 102 406 303 0 405 +17 405 0
 407 101 98 102 402 347 0 235 +16 347 566 0 ?405 408 313 343 408 408 1 16 408 56
8 0 ?59 409 347 343 347 347 1 17 59 0 407 98 101 57 282 408 0 206 +16 409 571 0
 ?410 236 408 237 0 0 1 17 410 0 411 410 410 0 412 409 0 0 +16 236 575 0 ?356 19
9 409 229 0 0 1 31 237 623 0 409 343 229 0 +.022225 .079375 -.01023964634032228
 0 0 1 1 0 0 .0050419 15 411 609 0 410 222 0 17 412 0 224 412 412 0 410 409 0 0
 -15 224 591 0 412 217 407 15 407 592 0 59 217 0 14 222 605 413 ?348 217 414 5 2
19 -0 0 348 217 21 81 1 413 1509 255 222 0 0 221 366 415 15 414 608 0 358 222 41
1 17 358 0 414 358 358 0 356 236 0 0 -80 255 1 255 0 416 8001 0 0 0 0 3 5 0 0 0
 FFFFTFTFFFFFFF2 81 1 221 1508 255 217 0 0 417 413 418 81 1 366 1510 255 348 0 0
 413 362 419 83 255 3 415 .866666666666667 .909803921568627 1 81 1 362 1511 255
 225 0 0 366 420 421 83 3 419 .866666666666667 .909803921568627 1 81 1 420 1512
 255 363 0 0 362 422 423 83 3 421 .866666666666667 .909803921568627 1 14 363 855
 420 ?424 225 425 5 426 -0 0 424 225 21 81 1 422 1513 255 424 0 0 420 427 428 83
 3 423 .866666666666667 .909803921568627 1 14 424 873 422 ?142 363 26 5 349 -0 0
 142 363 21 81 1 427 1514 255 142 0 0 422 256 429 83 3 428 .866666666666667 .909
803921568627 1 14 142 1022 427 ?253 424 136 5 430 +0 0 253 424 21 81 1 256 1515
 255 253 0 0 427 252 431 83 3 429 .866666666666667 .909803921568627 1 83 3 431 .
866666666666667 .909803921568627 1 50 430 1052 0 142 261 426 0 +.08255 .03175 -.
01905 -113826999736011e-30 -1 0 1 -113826999736011e-30 0 50 261 1053 0 253 0 430
 0 +.06731 0 -.01905 1 -1092739197465704e-31 0 1092739197465704e-31 1 0 50 426 8
92 0 363 430 349 0 +.08255 .05715 -.01905 113826999736011e-30 -1 0 1 11382699973
6011e-30 0 50 349 891 0 424 426 209 0 +.06731 .0889 -.01905 -1 -1092739197465704
e-31 0 1092739197465704e-31 -1 0 15 26 876 0 28 424 0 17 28 0 26 24 121 25 35 32
0 0 29 +17 121 0 26 28 27 119 432 330 0 35 +17 35 0 34 104 32 119 28 320 0 406 -
17 29 0 259 37 433 25 24 30 0 0 -15 259 1189 0 433 17 0 17 37 0 259 434 29 38 32
 23 0 375 -17 433 0 259 29 434 11 22 10 0 0 -17 434 0 259 433 37 33 375 371 0 0
 -17 22 0 148 124 31 33 433 10 0 435 +17 124 0 148 397 22 114 435 327 0 436 +17
 31 0 148 22 437 11 27 325 0 433 +17 435 0 425 375 436 33 124 327 0 434 -15 425
 858 0 435 363 438 17 375 0 425 117 435 38 434 371 0 36 +17 436 0 425 435 117 11
4 335 333 0 171 -17 117 0 425 436 375 115 36 328 0 335 +17 335 0 250 404 171 115
 436 333 0 403 +17 171 0 250 335 392 114 397 167 0 0 +15 250 84 0 171 245 0 17 3
92 0 250 171 404 81 95 391 0 397 +17 404 0 250 392 335 93 403 181 0 0 -17 95 0 3
99 62 83 93 392 391 0 401 -15 399 323 0 62 439 0 17 62 0 399 80 95 60 401 389 0
 190 +14 439 320 440 ?387 213 441 5 214 -0 0 387 213 21 81 1 440 1505 255 439 0
 0 442 443 444 14 387 312 443 ?223 439 445 5 446 -0 0 223 439 21 14 213 153 442
 ?439 244 290 5 201 -0 0 439 244 21 15 441 449 0 447 439 399 50 214 365 0 439 44
6 201 0 +.0574317832729253 .044958 -.01905 0 1 0 0 0 1 50 446 367 0 387 226 214
 0 +.0574317832729253 .043942 -.01905 0 -1 0 0 0 -1 51 226 500 0 223 219 446 0 +
.0762 .0889 -.0127 0 1 0 .0033782 0 0 1 14 223 473 417 ?217 387 448 5 226 -272 2
72 217 387 21 81 1 417 1507 255 223 0 0 443 221 449 15 448 771 0 450 223 451 17
 450 0 448 450 450 0 452 336 0 0 +15 451 477 0 453 223 0 17 453 0 451 453 453 0
 447 198 0 0 -17 447 0 441 447 447 0 453 198 0 0 +16 198 469 0 ?447 389 195 230
 0 0 1 17 452 0 438 452 452 0 450 336 0 0 -16 336 821 0 ?450 288 333 208 0 0 1 3
1 208 773 0 336 200 321 0 -.0762 .05715 -.0127 113826999736011e-30 -1 0 1 113826
999736011e-30 0 .0033782 15 438 859 0 452 363 0 81 1 443 1506 255 387 0 0 440 41
7 454 83 3 449 .866666666666667 .909803921568627 1 83 3 454 .866666666666667 .90
9803921568627 1 81 1 442 1504 255 213 0 0 455 440 456 14 244 81 455 ?213 239 457
 5 240 -0 0 213 239 21 81 1 455 1503 255 244 0 0 243 442 458 15 457 80 0 69 244
 0 17 69 0 457 307 187 67 459 169 0 184 +17 307 0 457 306 69 66 184 182 0 284 -1
7 187 0 457 69 306 71 460 185 0 459 +17 459 0 148 437 314 71 69 169 0 0 -17 184
 0 311 180 284 67 307 182 0 314 +17 284 0 311 184 286 66 279 174 0 0 -17 314 0 1
48 459 316 67 180 178 0 0 -17 437 0 148 31 459 118 73 166 0 0 -17 73 0 246 460 4
32 71 437 166 0 187 +15 246 82 0 406 239 0 17 460 0 246 461 73 70 187 185 0 306
 -17 432 0 246 73 406 118 121 330 0 437 -17 406 0 246 432 235 119 104 303 0 0 -1
7 235 0 246 406 461 102 101 199 0 0 +17 461 0 246 235 460 99 78 302 0 0 -17 101
 0 407 59 405 99 235 199 0 282 -17 282 0 273 78 278 99 59 408 0 461 -17 78 0 273
 76 282 70 461 302 0 460 +16 302 548 0 ?78 303 159 301 303 303 1 17 306 0 457 18
7 307 70 76 304 0 0 -81 1 243 1502 255 239 0 0 248 455 462 83 3 458 .86666666666
6667 .909803921568627 1 81 1 248 1501 255 245 0 0 270 243 463 83 3 462 .86666666
6666667 .909803921568627 1 81 1 270 1500 255 249 0 0 271 248 464 83 3 463 .86666
6666666667 .909803921568627 1 83 3 464 .866666666666667 .909803921568627 1 83 3
 456 .866666666666667 .909803921568627 1 15 445 442 0 197 387 385 17 197 0 445 1
97 197 0 465 195 0 0 +17 465 0 276 465 465 0 197 195 0 0 -15 276 482 0 465 272 4
66 15 466 934 0 467 272 0 17 467 0 466 467 467 0 319 317 0 0 -17 319 0 143 319 3
19 0 467 317 0 0 +15 143 1026 0 319 142 0 83 3 444 .866666666666667 .90980392156
8627 1 17 403 0 34 36 401 115 404 181 0 0 +16 181 218 0 ?403 159 178 299 159 159
 1 17 36 0 34 32 403 38 117 328 0 0 -17 27 0 26 121 24 118 31 325 0 432 -83 3 41
8 .866666666666667 .909803921568627 1 79 255 15 416 SDL/TYSA_COLOUR17 98 0 407 4
05 59 96 206 194 0 402 -17 65 0 385 386 158 63 162 165 0 193 -17 128 0 260 134 3
68 126 268 152 0 312 -81 1 352 1496 255 267 0 0 265 353 468 81 1 274 1498 255 27
2 0 0 353 271 469 83 3 355 .866666666666667 .909803921568627 1 83 3 469 .8666666
66666667 .909803921568627 1 81 1 265 1495 255 155 0 0 262 352 470 83 3 468 .8666
66666666667 .909803921568627 1 83 3 470 .866666666666667 .909803921568627 1 141
 350 200 471 471 209 141 471 341 350 350 209 83 3 275 .866666666666667 .90980392
1568627 1 83 3 266 .866666666666667 .909803921568627 1 81 1 257 1517 255 17 0 0
 252 0 472 83 3 472 .866666666666667 .909803921568627 1 83 3 258 .86666666666666
7 .909803921568627 1 141 216 196 473 473 201 141 473 200 216 216 201 40 5 210 -.
00248864750590894 1.003193773458046 5 .000414948070693647 .281440624766112 ??.02
213746732043055 .01988923004433595 -.00577337100782612 .0243654188414368 .018962
97071570585 -.0063498 .0260786610111607 .01840227327834165 -.0063498 .0286923546
754909 .01778059559676805 -.0056704902650267 .03133118376660775 .017422516618200
95 -.004355989494692125 41 1 211 L.02213746732043055 .01988923004433595 -.005773
37100782612 41 1 212 L.03133118376660775 .01742251661820095 -.004355989494692125
 19 16 95 0 1 0 9 5 S74 4 CI16 index_map_offset0 0 1 dCCZ20 14 2 0 0 2 257 0 0 0
 0 0 0 0 0 0 0 0 0 0 0 0 0 0 0 80 2 12 474 475 8004 0 0 0 0 3 5 0 0 0 FFTFFFFFFF
FFFF2 3 83 1 13 27e2 79 16 475 SDL/TYSA_DENSITY1 0 
