**ABCDEFGHIJKLMNOPQRSTUVWXYZabcdefghijklmnopqrstuvwxyz**************************
**PARASOLID !"#$%&'()*+,-./:;<=>?@[\]^_`{|}~0123456789**************************
**PART1;
MC=x86;
MC_MODEL=x86 Family 6 Model 23 Stepping 6, GenuineIntel;
MC_ID=unknown;
OS=Windows_NT;
OS_RELEASE=unknown;
FRU=Parasolid Version 19.1, build 315,  1-13-2009;
APPL=SolidWorks 2009-2009077;
SITE=;
USER=unknown;
FORMAT=text;
GUISE=transmit;
KEY=Small_Hole_Plate;
FILE=Small_Hole_Plate.x_t;
DATE=Sat Aug 07 12:02:38 2010;
**PART2;
SCH=SCH_1901315_19008;
USFLD_SIZE=0;
**PART3;
**END_OF_HEADER*****************************************************************
T51 : TRANSMIT FILE created by modeller version 190131523 SCH_1901315_19008_1300
6186 0 12 27 CCCCCCCCCCCCCCCCCCCCCCCA16 index_map_offset0 0 1 dA9 index_map82 0
 A17 node_id_index_map82 0 A20 schema_embedding_map82 0 Z1 4860 2 3 0 0 0 0 1e3
 1e-8 0 4 0 1 0 1 1 5 6 7 8 9 10 11 0 0 0 0 81 255 3 2 4702 12 1 13 0 0 0 14 15
 16 70 11 CI9 list_type0 0 1 uI10 notransmit0 0 1 lCCCDCCDI12 finger_index0 0 1
 dI12 finger_block1012 0 CZ3 0 4 T1 0 0 3 20 1 17 17 13 255 5 94 0 1 0 18 0 0 19
 0 51 255 6 1242 0 20 21 0 0 +.05461 .02921 -.01905 0 0 -1 .00254 -1 0 0 31 255
 7 1223 0 10 22 0 0 -.05461 .02921 -.01905 0 0 -1 -1 0 0 .00254 29 255 8 1207 0
 11 23 0 .05461 .03175 -.01905 19 255 9 28 0 1 19 0 24 V16 255 10 1218 0 ?25 0 2
6 7 0 0 1 18 255 11 1204 0 27 0 28 8 ?1 17 255 27 0 29 30 31 11 32 33 0 34 +18 2
8 1200 0 35 11 36 23 ?1 17 35 0 37 38 39 28 40 26 0 31 +18 36 1190 0 25 28 41 42
 ?1 29 23 1203 0 28 42 8 .05461 .03175 -.00635 29 42 1193 0 36 43 23 .05207 .029
21 -.01905 29 43 1189 0 41 44 42 .05207 .02921 -.00635 18 41 1186 0 40 36 45 43
 ?1 29 44 985 0 45 46 43 .05207 .05969 -.01905 18 45 983 0 47 41 48 44 ?1 29 46
 982 0 48 49 44 .05207 .05969 -.00635 18 48 980 0 50 45 51 46 ?1 29 49 974 0 51
 52 46 .05461 .05715 -.01905 18 51 972 0 53 48 54 49 ?1 29 52 971 0 54 55 49 .05
461 .05715 -.00635 18 54 969 0 56 51 57 52 ?1 29 55 685 0 57 58 52 .015051695730
7441 0 -.00635 18 57 683 0 59 54 60 55 ?1 29 58 554 0 60 61 55 0 .07384830426925
59 -.00635 18 60 552 0 62 57 63 58 ?1 29 61 189 0 63 64 58 .04225848375788775 .0
44958 -.00635 18 63 188 0 65 60 66 61 ?1 29 64 187 0 66 67 61 .04225848375788775
 .043942 -.01905 18 66 185 0 68 63 69 64 ?1 29 67 71 0 70 71 64 0 0 -.01905 18 7
0 62 0 72 73 74 67 ?1 29 71 72 0 74 75 67 0 .0889 -.01905 18 74 63 0 76 70 77 71
 ?1 29 75 24 0 69 78 71 0 0 -.00635 18 69 22 0 79 66 73 75 ?1 29 78 21 0 73 80 7
5 0 .0889 -.00635 18 73 19 0 81 69 70 78 ?1 29 80 387 0 77 82 78 .04225848375788
775 .044958 -.01905 18 77 308 0 83 74 84 80 ?1 29 82 388 0 84 85 80 .06731 .0449
58 -.01905 18 84 299 0 86 77 87 82 ?1 29 85 389 0 87 88 82 .06731 .043942 -.0190
5 18 87 297 0 89 84 90 85 ?1 29 88 391 0 90 91 85 .06731 .043942 -.00635 18 90 2
95 0 92 87 93 88 ?1 29 91 392 0 93 94 88 .04225848375788775 .043942 -.00635 18 9
3 305 0 95 90 96 91 ?1 29 94 394 0 96 97 91 .06731 .044958 -.00635 18 96 301 0 9
8 93 99 94 ?1 29 97 645 0 99 100 94 0 .0785516957307441 -.00635 18 99 592 0 101
 96 102 97 ?1 29 100 646 0 102 103 97 .0103483042692559 .0889 -.00635 18 102 588
 0 104 99 105 100 ?1 29 103 647 0 105 106 100 .0150516957307441 .0889 -.00635 18
 105 590 0 107 102 108 103 ?1 29 106 775 0 108 109 103 .0103483042692559 0 -.006
35 18 108 719 0 110 105 111 106 ?1 29 109 776 0 111 112 106 0 .01034830426925592
 -.00635 18 111 720 0 113 108 114 109 ?1 29 112 777 0 114 115 109 0 .01505169573
07441 -.00635 18 114 718 0 116 111 117 112 ?1 29 115 944 0 118 119 112 .06731 .0
5715 -.00635 18 118 884 0 120 121 122 115 ?1 29 119 946 0 122 123 115 .05207 .08
89 -.00635 18 122 886 0 124 118 125 119 ?1 29 123 948 0 117 126 119 .06731 .0571
5 -.01905 18 117 887 0 127 114 121 123 ?1 29 126 950 0 121 128 123 .05207 .0889
 -.01905 18 121 889 0 129 117 118 126 ?1 29 128 1172 0 130 131 126 .05207 0 -.00
635 18 130 1110 0 132 133 134 128 ?1 29 131 1174 0 134 135 128 .06731 .03175 -.0
0635 18 134 1112 0 38 130 0 131 ?1 29 135 1176 0 125 136 131 .05207 0 -.01905 18
 125 1114 0 137 122 133 135 ?1 29 136 1178 0 133 0 135 .06731 .03175 -.01905 18
 133 1116 0 30 125 130 136 ?1 17 30 0 29 138 27 133 34 139 0 140 +15 255 29 1126
 0 31 141 142 17 138 0 29 31 30 134 140 143 0 144 +17 34 0 145 25 146 11 30 139
 0 147 -16 139 1205 0 ?30 148 149 150 0 0 1 17 140 0 151 89 144 133 138 143 0 14
6 -15 151 1066 0 140 152 0 17 89 0 151 153 140 87 146 154 0 155 +17 144 0 151 14
0 153 134 92 156 0 0 -16 143 1091 0 ?138 157 148 158 0 0 1 17 146 0 145 34 159 1
33 89 154 0 0 -15 145 823 0 34 160 0 17 159 0 145 146 161 87 68 162 0 0 +16 154
 1040 0 ?89 163 164 165 164 164 1 16 163 813 0 ?76 166 154 167 0 0 1 16 164 204
 0 ?168 154 169 165 154 154 1 30 255 165 69 0 154 170 167 0 +.06731 0 -.01905 0
 1 0 30 170 14 0 171 172 165 0 +0 0 -.00635 1 0 0 30 167 68 0 163 165 173 0 +0 .
0889 -.01905 -1 0 0 30 173 67 0 166 167 174 0 +0 0 -.01905 0 -1 0 16 166 49 0 ?7
2 175 163 173 0 0 1 30 174 66 0 175 173 176 0 +0 0 -.01905 1 0 0 16 175 45 0 ?17
7 178 166 174 0 0 1 30 176 87 0 179 174 180 0 +0 0 -.00635 0 0 -1 16 179 75 0 ?1
81 182 171 176 0 0 1 30 180 88 0 182 176 183 0 +0 .0889 -.00635 0 0 -1 16 182 76
 0 ?184 185 179 180 0 0 1 30 183 194 0 185 180 186 0 +.04225848375788775 .044958
 -.01905 0 0 1 16 185 193 0 ?187 188 182 183 0 0 1 30 186 197 0 188 183 189 0 -.
04225848375788775 .043942 -.01905 0 0 1 16 188 195 0 ?190 191 185 186 0 0 1 31 1
89 443 0 192 186 193 0 +.06096 .043942 -.0127 0 -1 0 0 0 -1 .0033782 16 192 470
 0 ?194 195 196 189 0 0 1 31 193 539 0 197 189 198 0 +.0127 .0762 -.01905 0 0 -1
 -1 0 0 .00463260505741484 16 197 585 0 ?199 200 201 193 0 0 1 31 198 557 0 191
 193 202 0 +.0127 .0762 -.00635 0 0 -1 -1 0 0 .0129159 16 191 555 0 ?203 204 188
 198 204 204 1 31 202 670 0 205 198 206 0 +.0127 .0127 -.01905 0 0 -1 -1 0 0 .00
463260505741484 16 205 715 0 ?207 208 209 202 0 0 1 31 206 809 0 210 202 211 0 -
.06096 .05715 -.0127 0 -1 0 0 0 -1 .0033782 16 210 857 0 ?212 213 214 206 0 0 1
 30 211 977 0 215 206 216 0 +.05461 .05715 -.00635 0 0 1 16 215 975 0 ?217 218 2
19 211 0 0 1 30 216 988 0 218 211 220 0 -.05207 .05969 -.01905 0 0 1 16 218 986
 0 ?47 221 215 216 0 0 1 31 220 999 0 221 216 222 0 +.05461 .05969 -.00635 0 0 -
1 -1 0 0 .00254 16 221 991 0 ?50 223 218 220 0 0 1 31 222 1000 0 223 220 224 0 -
.05461 .05969 -.01905 0 0 -1 -1 0 0 .00254 16 223 995 0 ?53 225 221 222 0 0 1 31
 224 1036 0 226 222 227 0 -.06096 .03175 -.0127 0 -1 0 0 0 -1 .0033782 16 226 10
97 0 ?228 229 157 224 0 0 1 30 227 1196 0 225 224 230 0 +.05207 .02921 -.00635 0
 0 1 16 225 1194 0 ?231 33 223 227 0 0 1 30 230 1210 0 33 227 22 0 -.05461 .0317
5 -.01905 0 0 1 16 33 1208 0 ?27 26 225 230 0 0 1 31 22 1222 0 26 230 7 0 +.0546
1 .02921 -.00635 0 0 -1 -1 0 0 .00254 16 26 1214 0 ?35 10 33 22 0 0 1 17 231 0 2
32 132 233 41 234 225 0 39 +15 232 1139 0 233 235 0 17 132 0 232 137 231 130 39
 149 0 236 -17 233 0 232 231 137 36 237 148 0 234 +17 234 0 238 147 40 36 231 22
5 0 0 -17 39 0 37 35 239 41 132 149 0 0 +15 37 1075 0 39 18 0 17 239 0 37 39 240
 130 241 242 0 0 +16 149 1093 0 ?39 139 243 244 0 0 1 16 243 1201 0 ?38 149 0 24
5 0 0 1 30 244 1164 0 149 245 246 0 +.05207 0 -.00635 1092739197465704e-31 1 0 3
0 245 1165 0 243 247 244 0 +.06731 .03175 -.00635 1 0 0 30 246 1161 0 157 244 15
8 0 +.05207 0 -.01905 0 0 1 16 157 1096 0 ?236 226 143 246 0 0 1 30 158 1159 0 1
43 246 248 0 +.06731 .03175 -.01905 0 0 1 30 248 941 0 249 158 250 0 +.05207 .08
89 -.01905 1092739197465704e-31 -1 0 16 249 867 0 ?251 252 253 248 0 0 1 30 250
 940 0 252 248 254 0 +.06731 .05715 -.01905 1 0 0 16 252 973 0 ?127 255 249 250
 0 0 1 30 254 937 0 229 250 256 0 +.05207 .0889 -.00635 1092739197465704e-31 -1
 0 16 229 877 0 ?257 253 226 254 0 0 1 30 256 936 0 253 254 258 0 +.06731 .05715
 -.00635 1 0 0 16 253 970 0 ?120 249 229 256 0 0 1 30 258 935 0 214 256 259 0 +.
06731 .05715 -.01905 0 0 1 16 214 856 0 ?260 210 255 258 0 0 1 30 259 933 0 255
 258 261 0 +.05207 .0889 -.01905 0 0 1 16 255 861 0 ?124 214 252 259 0 0 1 31 26
1 773 0 219 259 262 0 +.0127 .0127 -.00635 0 0 1 1 0 0 .0129159 16 219 691 0 ?11
0 215 263 261 263 263 1 31 262 772 0 213 261 264 0 +.0127 .0127 -.01152695943048
922 0 0 1 1 0 0 .00674624 16 213 707 0 ?265 209 210 262 0 0 1 31 264 771 0 209 2
62 266 0 +.0127 .0127 -.01778 0 0 1 1 0 0 .00674624 16 209 717 0 ?267 205 213 26
4 0 0 1 38 255 266 770 0 208 264 268 0 -269 270 271 272 273 16 208 709 0 ?274 27
5 205 266 0 0 1 38 268 769 0 275 266 276 0 +277 269 278 279 280 52 255 269 768 0
 281 282 283 284 +.0127 .0127 -.00635 0 0 1 .0129159 .766044443118978 .642787609
68654 1 0 0 50 255 270 90 0 285 286 277 287 +0 0 -.00635 0 1 0 0 0 1 40 255 7 27
1 0 1 7 .00495499018560512 .324860478121662 ??-.01119836796750294 0 .00552107478
31834 .00206694399106032 0 -.003289240715192705 .00965866905680298 0 -.006229853
74841354 .01144788665758844 0 -.00647949433523453 .01662209945315595 0 -.0060345
5350775036 .02458412476507635 0 -.00259312297638323 .0579472813956236 0 .0222464
4273384705 41 255 1 272 L-.01119836796750294 0 .0055210747831834 41 1 273 L.0579
472813956236 0 .02224644273384705 14 255 285 1060 288 ?160 152 289 5 270 -0 0 16
0 152 24 50 286 65 0 160 290 270 0 +.06731 .0889 -.01905 0 0 -1 -1 0 0 50 277 91
 0 291 270 292 293 +0 0 -.00635 1 0 0 0 0 -1 141 255 287 266 287 287 270 14 291
 81 294 ?295 296 297 5 277 -0 0 295 296 24 50 292 92 0 296 277 298 299 +0 .0889
 -.00635 0 -1 0 0 0 -1 141 293 300 301 301 277 38 300 640 0 200 302 303 0 +277 3
04 305 306 307 141 301 268 293 293 277 16 200 584 0 ?308 196 197 300 0 0 1 31 30
2 641 0 201 276 300 0 +.0127 .0762 -.01778 0 0 1 1 0 0 .00674624 38 303 639 0 19
6 300 309 0 +292 304 310 311 312 52 304 638 0 313 314 315 316 +.0127 .0762 -.006
35 0 0 1 .0129159 .766044443118978 .64278760968654 1 0 0 40 7 305 0 1 7 .0049390
8520649322 .326184974972865 ??0 .0512996145455063 .0062668593881847 0 .065240511
8200156 -.003111836711685665 0 .0730322511323868 -.00620466492835472 0 .07476802
66483718 -.00646363485567925 0 .0799345705993816 -.00607996771491407 0 .08772198
55372914 -.00279903614695163 0 .1199630174866252 .02104881690858455 41 1 306 L0
 .0512996145455063 .0062668593881847 41 1 307 L0 .1199630174866252 .021048816908
58455 14 313 601 317 ?318 319 320 5 304 -0 0 318 319 24 52 314 766 0 321 283 304
 0 +.0127 .0127 -.01778 0 0 1 .00674624 .857167300702112 .515038074910055 1 0 0
 51 315 637 0 322 304 323 0 +.0127 .0762 -.00635 0 0 1 .00674624 1 0 0 141 316 3
00 324 324 304 141 324 303 316 316 304 14 322 624 325 ?281 318 326 5 315 -0 0 28
1 318 24 52 323 636 0 318 315 327 0 +.0127 .0762 -.01778 0 0 1 .00674624 .857167
300702112 .515038074910055 1 0 0 14 318 619 328 ?322 313 329 5 323 -0 0 322 313
 24 51 327 499 0 319 323 330 0 +.06096 .0889 -.0127 0 1 0 .0033782 0 0 1 14 319
 472 331 ?313 332 333 5 327 -334 334 313 332 24 50 330 366 0 332 327 335 0 +.040
5534832729253 .043942 -.01905 0 -1 0 0 0 -1 14 332 311 336 ?319 337 338 5 330 -0
 0 319 337 24 50 335 364 0 337 330 339 0 +.0405534832729253 .044958 -.01905 0 1
 0 0 0 1 14 337 319 340 ?332 295 341 5 335 -0 0 332 295 24 51 339 166 0 295 335
 290 0 +.02413 .04445 -.01905 0 0 1 .0181356 1 0 0 14 295 153 342 ?337 291 343 5
 339 -0 0 337 291 24 50 290 2 0 344 339 286 0 +.06731 .0889 -.00635 0 0 -1 -1 0
 0 14 344 693 345 ?346 334 347 5 290 -18 346 346 334 24 81 1 345 4788 348 344 0
 0 349 350 351 14 346 558 350 ?352 344 353 5 290 -344 18 352 344 24 14 334 1037
 349 ?344 160 354 5 327 -319 319 344 160 24 15 347 692 0 355 344 0 14 18 1077 35
6 ?152 0 37 5 290 -346 344 152 0 24 13 24 29 0 0 0 0 0 0 9 18 81 1 356 4783 348
 18 0 0 0 357 358 14 152 1068 357 ?285 18 151 5 298 -352 352 285 18 24 81 1 357
 4784 348 152 0 0 356 288 359 50 298 93 0 352 292 21 0 +.06731 0 -.00635 -1 0 0
 0 0 1 14 352 85 360 ?296 346 361 5 298 -152 152 296 346 24 81 1 360 4790 348 35
2 0 0 350 362 363 14 296 83 362 ?291 352 364 5 292 -0 0 291 352 24 15 361 84 0 1
68 352 0 17 168 0 361 260 365 117 366 164 0 0 +17 260 0 361 367 168 118 368 214
 0 369 +17 365 0 361 168 367 84 98 370 0 366 +17 366 0 145 371 127 84 168 164 0
 0 -17 371 0 145 161 366 77 86 372 0 373 +17 127 0 145 366 53 117 374 252 0 368
 +17 53 0 145 127 251 51 375 223 0 374 +17 374 0 376 217 368 51 127 252 0 377 -1
7 368 0 376 374 120 117 260 214 0 168 -15 376 894 0 374 378 379 17 120 0 376 368
 217 118 380 253 0 260 +17 217 0 376 120 374 54 377 215 0 380 +17 380 0 37 50 36
9 54 120 253 0 0 -17 50 0 37 381 380 48 56 221 0 257 +17 369 0 37 380 382 118 36
7 178 0 0 +17 382 0 37 369 383 96 65 384 0 367 -17 367 0 361 365 260 96 369 178
 0 0 -16 178 217 0 ?369 156 175 385 156 156 1 16 156 1063 0 ?92 386 178 385 178
 178 1 30 385 5 0 156 387 388 0 +.06731 0 -.00635 0 1 0 31 387 169 0 389 390 385
 0 +.02413 .04445 -.00635 0 0 1 1 0 0 .0181356 30 388 8 0 391 385 172 0 +0 .0889
 -.00635 -1 0 0 16 391 828 0 ?107 392 386 388 386 386 1 30 172 11 0 393 388 170
 0 +0 0 -.00635 0 -1 0 16 393 10 0 ?394 242 395 172 392 395 1 17 394 0 353 396 8
1 99 397 393 0 0 +16 242 684 0 ?239 171 393 170 171 171 1 16 395 553 0 ?398 393
 392 172 393 392 1 16 392 678 0 ?79 395 391 172 395 393 1 17 79 0 347 399 355 69
 400 392 0 401 +17 399 0 347 355 79 108 402 171 0 0 +17 355 0 347 79 399 111 110
 219 0 400 -17 400 0 297 403 401 111 79 392 0 0 -17 401 0 297 400 72 69 181 179
 0 402 -15 297 80 0 400 291 0 17 72 0 297 401 184 70 404 166 0 181 +17 181 0 289
 177 402 70 401 179 0 405 +17 402 0 289 181 274 69 399 171 0 0 -15 289 1058 0 23
6 285 0 17 274 0 289 402 241 108 59 208 0 399 +16 171 13 0 ?399 179 242 170 242
 242 1 17 241 0 289 274 236 57 239 242 0 0 -17 59 0 406 116 110 57 274 208 0 240
 -15 406 727 0 110 281 0 17 116 0 406 113 59 114 240 263 0 403 +17 110 0 406 59
 113 108 355 219 0 274 +17 240 0 37 239 398 57 116 263 0 241 -17 398 0 37 240 20
3 114 407 395 0 0 +16 263 686 0 ?116 219 204 261 219 219 1 16 204 561 0 ?396 263
 191 198 191 191 1 17 396 0 353 81 394 102 101 204 0 408 +15 353 556 0 394 346 0
 17 81 0 353 394 396 73 408 386 0 409 +17 101 0 410 62 104 99 396 204 0 308 -17
 408 0 364 411 409 102 81 386 0 0 -15 364 82 0 412 296 0 17 411 0 364 412 408 10
5 104 196 0 0 +17 409 0 364 408 76 73 184 182 0 397 -16 386 547 0 ?81 391 156 38
8 391 391 1 17 76 0 364 409 413 74 414 163 0 184 +17 184 0 297 72 397 74 409 182
 0 404 +17 397 0 297 184 308 73 394 393 0 0 -17 308 0 297 397 407 99 62 200 0 39
4 +17 407 0 297 308 403 60 398 395 0 0 -17 62 0 410 415 101 60 308 200 0 203 -15
 410 605 0 101 313 0 17 415 0 410 104 62 105 203 191 0 411 -17 203 0 37 398 107
 60 415 191 0 407 +17 107 0 37 203 381 105 412 391 0 415 +17 381 0 37 107 50 122
 257 229 0 412 -17 412 0 364 413 411 122 107 391 0 0 -17 413 0 364 76 412 121 12
4 255 0 414 -17 124 0 416 257 129 122 413 255 0 381 +17 414 0 145 251 404 121 76
 163 0 0 -17 251 0 145 53 414 45 129 249 0 375 +17 404 0 145 414 405 74 72 166 0
 0 -17 405 0 145 404 237 70 177 175 0 0 -17 237 0 145 405 25 125 233 148 0 177 -
17 177 0 289 236 181 125 405 175 0 0 +17 236 0 289 241 177 130 137 157 0 239 +17
 137 0 232 233 132 125 236 157 0 237 -17 25 0 145 237 34 36 147 10 0 233 +16 148
 1104 0 ?233 143 139 247 0 0 1 30 247 1168 0 148 150 245 0 +.05207 0 -.01905 109
2739197465704e-31 1 0 30 150 1169 0 139 0 247 0 +.06731 .03175 -.01905 1 0 0 17
 147 0 238 32 234 11 25 10 0 0 -15 238 1231 0 147 20 0 17 32 0 238 40 147 28 27
 33 0 0 -17 40 0 238 234 32 41 35 26 0 231 -14 20 1230 417 ?0 235 238 5 6 -0 0 0
 235 24 81 1 417 4808 348 20 0 0 418 0 419 14 235 1136 418 ?20 141 232 5 420 +0
 0 20 141 24 81 1 418 4807 348 235 0 0 421 417 422 14 141 1123 421 ?235 423 29 5
 424 +0 0 235 423 24 50 420 1154 0 235 0 424 0 +.05207 0 -.01905 1 -109273919746
5704e-31 0 1092739197465704e-31 1 0 50 424 1153 0 141 420 425 0 +.06731 .03175 -
.01905 0 -1 0 0 0 -1 50 425 928 0 378 424 282 0 +.06731 .05715 -.01905 0 -1 0 0
 0 -1 14 378 891 426 ?427 428 376 5 425 -0 0 427 428 24 50 282 927 0 427 425 269
 0 +.05207 .0889 -.01905 -1 -1092739197465704e-31 0 1092739197465704e-31 -1 0 14
 427 909 429 ?423 378 416 5 282 -0 0 423 378 24 81 1 429 4804 348 427 0 0 426 43
0 431 14 423 1007 430 ?141 427 432 5 21 -0 0 141 427 24 15 416 912 0 257 427 0 1
7 257 0 416 47 124 48 381 229 0 433 +17 47 0 416 129 257 45 433 218 0 251 +17 43
3 0 432 56 375 48 47 218 0 0 -15 432 1008 0 375 423 0 17 56 0 432 377 433 54 50
 221 0 217 -17 375 0 432 433 377 45 53 223 0 0 -17 377 0 432 375 56 51 217 215 0
 0 -17 129 0 416 124 47 121 251 249 0 413 -81 1 430 4805 348 423 0 0 429 421 434
 51 21 1019 0 423 298 6 0 +.05461 .05969 -.01905 0 0 -1 .00254 -1 0 0 80 255 1 3
48 0 435 8001 0 0 0 0 3 5 0 0 0 FFFFTFTFFFFFFF2 81 1 421 4806 348 141 0 0 430 41
8 436 83 255 3 434 .866666666666667 .909803921568627 1 83 3 436 .866666666666667
 .909803921568627 1 79 255 15 435 SDL/TYSA_COLOUR81 1 426 4803 348 378 0 0 437 4
29 438 83 3 431 .866666666666667 .909803921568627 1 81 1 437 4802 348 428 0 0 43
9 426 440 83 3 438 .866666666666667 .909803921568627 1 14 428 754 437 ?378 321 4
41 5 283 -0 0 378 321 24 81 1 439 4801 348 321 0 0 442 437 443 83 3 440 .8666666
66666667 .909803921568627 1 14 321 749 439 ?428 281 444 5 314 -0 0 428 281 24 81
 1 442 4800 348 281 0 0 325 439 445 83 3 443 .866666666666667 .909803921568627 1
 14 281 723 442 ?321 322 446 5 269 -0 0 321 322 24 81 1 325 4799 348 322 0 0 328
 442 447 83 3 445 .866666666666667 .909803921568627 1 81 1 328 4798 348 318 0 0
 317 325 448 83 3 447 .866666666666667 .909803921568627 1 81 1 317 4797 348 313
 0 0 331 328 449 83 3 448 .866666666666667 .909803921568627 1 81 1 331 4796 348
 319 0 0 336 317 450 83 3 449 .866666666666667 .909803921568627 1 81 1 336 4795
 348 332 0 0 340 331 451 83 3 450 .866666666666667 .909803921568627 1 81 1 340 4
794 348 337 0 0 342 336 452 83 3 451 .866666666666667 .909803921568627 1 81 1 34
2 4793 348 295 0 0 294 340 453 83 3 452 .866666666666667 .909803921568627 1 81 1
 294 4792 348 291 0 0 362 342 454 83 3 453 .866666666666667 .909803921568627 1 8
1 1 362 4791 348 296 0 0 360 294 455 83 3 454 .866666666666667 .909803921568627
 1 83 3 455 .866666666666667 .909803921568627 1 15 446 726 0 456 281 406 17 456
 0 446 456 456 0 265 213 0 0 -17 265 0 457 265 265 0 456 213 0 0 +15 457 758 0 2
65 428 0 15 444 752 0 207 321 458 17 207 0 444 207 207 0 459 205 0 0 +15 458 753
 0 267 321 0 17 267 0 458 267 267 0 460 209 0 0 +17 460 0 441 460 460 0 267 209
 0 0 -15 441 757 0 460 428 457 17 459 0 461 459 459 0 207 205 0 0 -15 461 669 0
 459 160 145 14 160 1052 462 ?334 285 463 5 286 +0 0 334 285 24 81 1 462 4786 34
8 160 0 0 288 349 464 15 463 538 0 465 160 461 17 465 0 463 465 465 0 199 197 0
 0 -17 199 0 329 199 199 0 465 197 0 0 +15 329 622 0 199 318 466 15 466 623 0 46
7 318 0 17 467 0 466 467 467 0 468 201 0 0 +17 468 0 326 468 468 0 467 201 0 0 -
16 201 587 0 ?467 197 469 302 0 0 1 16 469 582 0 ?470 201 275 276 0 0 1 17 470 0
 471 470 470 0 472 469 0 0 +16 275 708 0 ?403 469 208 268 0 0 1 31 276 642 0 469
 268 302 0 +.0127 .0762 -.01152695943048922 0 0 1 1 0 0 .00674624 17 403 0 297 4
07 400 114 113 275 0 398 +17 113 0 406 110 116 111 403 275 0 355 -15 471 628 0 4
70 322 0 17 472 0 320 472 472 0 470 469 0 0 -15 320 604 0 472 313 410 15 326 627
 0 468 322 471 81 1 288 4785 348 285 0 0 357 462 473 81 1 349 4787 348 334 0 0 4
62 345 474 83 3 464 .866666666666667 .909803921568627 1 83 3 474 .86666666666666
7 .909803921568627 1 83 3 473 .866666666666667 .909803921568627 1 51 283 767 0 4
28 269 314 0 +.0127 .0127 -.00635 0 0 1 .00674624 1 0 0 83 3 422 .86666666666666
7 .909803921568627 1 83 3 419 .866666666666667 .909803921568627 1 17 104 0 410 1
01 415 102 411 196 0 396 -16 196 583 0 ?411 192 200 303 0 0 1 16 389 150 0 ?475
 169 476 387 0 0 1 31 390 170 0 169 477 387 0 +.02413 .04445 -.01905 0 0 1 1 0 0
 .0181356 16 169 147 0 ?161 164 389 390 0 0 1 30 477 369 0 476 478 390 0 +.06731
 .043942 -.00635 0 0 1 16 476 238 0 ?153 389 370 477 0 0 1 30 478 370 0 370 479
 477 0 +.06731 .044958 -.00635 0 0 -1 16 370 244 0 ?365 476 162 478 0 0 1 30 479
 379 0 480 481 478 0 +.0405534832729253 .043942 -.00635 1 0 0 16 480 257 0 ?482
 372 384 479 0 0 1 30 481 381 0 384 483 479 0 +.0405534832729253 .044958 -.00635
 -1 0 0 16 384 254 0 ?65 480 195 481 0 0 1 30 483 383 0 162 484 481 0 +.04055348
32729253 .043942 -.01905 1 0 0 16 162 235 0 ?159 370 372 483 0 0 1 30 484 385 0
 372 309 483 0 +.0405534832729253 .044958 -.01905 -1 0 0 16 372 245 0 ?371 162 4
80 484 0 0 1 31 309 500 0 195 303 484 0 +.06096 .044958 -.0127 0 1 0 0 0 1 .0033
782 16 195 468 0 ?485 384 192 309 0 0 1 17 485 0 341 485 485 0 486 195 0 0 +15 3
41 448 0 485 337 487 17 486 0 488 486 486 0 485 195 0 0 -15 488 476 0 486 319 0
 15 487 322 0 65 337 0 17 65 0 487 83 98 63 382 384 0 187 +17 83 0 487 86 65 77
 187 185 0 371 -17 98 0 487 65 86 96 365 370 0 382 -17 187 0 343 475 373 63 83 1
85 0 383 +15 343 156 0 475 295 0 17 475 0 343 190 187 93 383 389 0 0 +17 373 0 3
43 187 190 77 161 169 0 0 -17 383 0 37 382 489 63 475 389 0 0 -17 489 0 37 383 9
2 93 482 480 0 475 -17 92 0 37 489 38 90 144 156 0 482 +17 482 0 490 155 95 90 4
89 480 0 153 +15 490 314 0 68 332 0 17 155 0 490 68 482 87 153 476 0 159 -17 95
 0 490 482 68 93 190 188 0 489 -17 153 0 151 144 89 90 155 476 0 0 +17 68 0 490
 95 155 66 159 162 0 190 -17 190 0 343 373 475 66 95 188 0 161 +17 161 0 145 159
 371 66 373 169 0 0 +17 38 0 37 92 35 134 31 243 0 138 +17 31 0 29 27 138 28 38
 243 0 32 -17 86 0 487 98 83 84 371 372 0 365 -15 379 895 0 491 378 0 17 491 0 3
79 491 491 0 212 210 0 0 -17 212 0 333 212 212 0 491 210 0 0 +15 333 807 0 212 3
19 488 81 1 350 4789 348 346 0 0 345 360 492 83 3 363 .866666666666667 .90980392
1568627 1 83 3 492 .866666666666667 .909803921568627 1 83 3 359 .866666666666667
 .909803921568627 1 83 3 358 .866666666666667 .909803921568627 1 15 354 481 0 49
3 334 494 17 493 0 354 493 493 0 194 192 0 0 -15 494 1035 0 495 334 0 17 495 0 4
94 495 495 0 228 226 0 0 -17 228 0 142 228 228 0 495 226 0 0 +15 142 1127 0 228
 141 0 17 194 0 338 194 194 0 493 192 0 0 +15 338 441 0 194 332 490 83 3 351 .86
6666666666667 .909803921568627 1 40 7 310 0 1 7 .00495499018560512 .324860478121
662 ??-.01119836796750294 .0889 .0055210747831834 .00206694399106032 .0889 -.003
289240715192705 .00965866905680298 .0889 -.00622985374841354 .01144788665758844
 .0889 -.00647949433523453 .01662209945315595 .0889 -.00603455350775036 .0245841
2476507635 .0889 -.00259312297638323 .0579472813956236 .0889 .02224644273384705
 41 1 311 L-.01119836796750294 .0889 .0055210747831834 41 1 312 L.05794728139562
36 .0889 .02224644273384705 141 299 303 299 299 292 141 284 266 496 496 269 141
 496 268 284 284 269 40 7 278 0 1 7 .00495499018560513 .3248604781216615 ??0 -.0
1119836796750286 .00552107478318333 0 .002066943991060345 -.003289240715192715 0
 .00965866905680299 -.00622985374841354 0 .01144788665758844 -.00647949433523452
 0 .01662209945315595 -.00603455350775036 0 .0245841247650764 -.0025931229763832
05 0 .0579472813956237 .0222464427338472 41 1 279 L0 -.01119836796750286 .005521
07478318333 41 1 280 L0 .0579472813956237 .0222464427338472 19 19 95 0 1 0 9 5 S
74 4 CI16 index_map_offset0 0 1 dCCZ20 17 3 0 0 13 2 417 0 0 0 0 0 0 0 0 0 0 0 0
 0 0 0 0 0 81 2 13 1261 497 1 0 2 0 0 498 0 80 2 497 499 500 8004 0 0 0 0 3 5 0
 0 0 FFTFFFFFFFFFFF2 3 83 1 498 27e2 79 16 500 SDL/TYSA_DENSITY80 3 12 501 502 9
000 0 1 0 0 1 1 1 1 0 FFTFFFFFFFFFFF1 1 1 82 255 1 14 1326 82 1 15 363 82 9 16 1
540 1535 1529 1522 1527 1525 1703 1693 1698 79 13 502 TempAxisFaces1 0 
