**ABCDEFGHIJKLMNOPQRSTUVWXYZabcdefghijklmnopqrstuvwxyz**************************
**PARASOLID !"#$%&'()*+,-./:;<=>?@[\]^_`{|}~0123456789**************************
**PART1;
MC=x86;
MC_MODEL=x86 Family 6 Model 23 Stepping 6, GenuineIntel;
MC_ID=unknown;
OS=Windows_NT;
OS_RELEASE=unknown;
FRU=Parasolid Version 21.0, build 275, 11-13-2009;
APPL=SolidWorks 2010-2010018;
SITE=;
USER=unknown;
FORMAT=text;
GUISE=transmit;
KEY=Load_Cell_s;
FILE=Load_Cell_s.x_t;
DATE=Sat Sep 17 09:18:10 2011;
**PART2;
SCH=SCH_2100275_20000;
USFLD_SIZE=0;
**PART3;
**END_OF_HEADER*****************************************************************
T51 : TRANSMIT FILE created by modeller version 210027523 SCH_2100275_20000_1300
6186 0 12 27 CCCCCCCCCCCCCCCCCCCCCCCA16 index_map_offset0 0 1 dA9 index_map82 0
 A17 node_id_index_map82 0 A20 schema_embedding_map82 0 Z1 2816 2 3 0 4 0 0 1e3
 1e-8 0 5 0 1 0 1 1 6 7 8 9 10 11 12 0 0 0 0 81 255 2 2 1669 13 1 0 0 0 0 14 0 7
0 11 CI9 list_type0 0 1 uI10 notransmit0 0 1 lCCCDCCDI12 finger_index0 0 1 dI12
 finger_block1012 0 CZ3 0 4 T1 0 0 2 20 1 15 15 133 255 4 2678 0 1 16 0 0 +17 .0
73025 -.0635 -.0254 .0889 -.0635 -.0254 -.015875 0 13 255 6 254 0 1 0 18 0 0 19
 0 51 255 7 1377 0 20 21 0 0 +.036449 -.041021 -.042418 0 0 1 .003429 0 1 0 31 2
55 8 1417 0 11 22 0 0 -.04445 -.03175 -.038862 0 0 -1 0 -1 0 .00127 29 255 9 125
4 0 12 23 0 .03302 -.041021 -.05588 19 255 10 76 0 1 19 0 24 V16 255 11 1414 0 ?
25 0 26 8 0 0 1 18 255 12 1251 0 27 0 28 9 ?1 17 255 27 0 29 30 31 12 32 26 0 33
 -18 28 1247 0 34 12 35 23 ?1 17 34 0 36 37 38 28 39 40 0 41 +18 35 1231 0 39 28
 42 43 ?1 29 23 1250 0 28 43 9 .03302 -.022479 -.05588 29 43 1234 0 35 44 23 .03
6449 -.01905 -.05588 29 44 1230 0 42 45 43 .052451 -.01905 -.05588 18 42 1227 0
 46 35 47 44 ?1 29 45 1206 0 47 48 44 .03302 -.041021 -.042418 18 47 1203 0 49 4
2 50 45 ?1 29 48 1202 0 50 51 45 .03302 -.022479 -.042418 18 50 1199 0 52 47 53
 48 ?1 29 51 1198 0 53 54 48 .036449 -.01905 -.042418 18 53 1195 0 55 50 56 51 ?
1 29 54 1194 0 56 57 51 .052451 -.01905 -.042418 18 56 1191 0 58 53 59 54 ?1 29
 57 1178 0 59 60 54 .05588 -.022479 -.042418 18 59 1175 0 61 56 62 57 ?1 29 60 1
174 0 62 63 57 .05588 -.041021 -.042418 18 62 1171 0 64 59 65 60 ?1 29 63 1170 0
 65 66 60 .05588 -.022479 -.05588 18 65 1167 0 67 62 68 63 ?1 29 66 1166 0 68 69
 63 .05588 -.041021 -.05588 18 68 1163 0 70 65 71 66 ?1 29 69 1150 0 71 72 66 .0
52451 -.04445 -.042418 18 71 1147 0 73 68 74 69 ?1 29 72 1146 0 74 75 69 .036449
 -.04445 -.042418 18 74 1143 0 76 71 77 72 ?1 29 75 1142 0 77 78 72 .052451 -.04
445 -.05588 18 77 1139 0 79 74 80 75 ?1 29 78 1138 0 80 81 75 .036449 -.04445 -.
05588 18 80 1135 0 32 77 82 78 ?1 29 81 872 0 82 83 78 .03302 -.041021 -.0254 18
 82 870 0 84 80 85 81 ?1 29 83 869 0 85 86 81 .03302 -.022479 -.0254 18 85 867 0
 87 82 88 83 ?1 29 86 856 0 88 89 83 .036449 -.01905 -.0254 18 88 854 0 90 85 91
 86 ?1 29 89 853 0 91 92 86 .052451 -.01905 -.0254 18 91 851 0 93 88 94 89 ?1 29
 92 830 0 94 95 89 .03302 -.041021 -.038862 18 94 828 0 96 91 97 92 ?1 29 95 827
 0 97 98 92 .03302 -.022479 -.038862 18 97 825 0 99 94 100 95 ?1 29 98 824 0 100
 101 95 .036449 -.01905 -.038862 18 100 822 0 102 97 103 98 ?1 29 101 821 0 103
 104 98 .052451 -.01905 -.038862 18 103 819 0 105 100 106 101 ?1 29 104 808 0 10
6 107 101 .052451 -.04445 -.038862 18 106 806 0 108 103 109 104 ?1 29 107 805 0
 109 110 104 .036449 -.04445 -.038862 18 109 803 0 111 106 112 107 ?1 29 110 802
 0 112 113 107 .052451 -.04445 -.0254 18 112 800 0 114 109 115 110 ?1 29 113 799
 0 115 116 110 .036449 -.04445 -.0254 18 115 797 0 117 112 118 113 ?1 29 116 786
 0 118 119 113 .05588 -.022479 -.038862 18 118 784 0 120 115 121 116 ?1 29 119 7
83 0 121 122 116 .05588 -.041021 -.038862 18 121 781 0 123 118 124 119 ?1 29 122
 780 0 124 125 119 .05588 -.022479 -.0254 18 124 778 0 126 121 127 122 ?1 29 125
 777 0 127 128 122 .05588 -.041021 -.0254 18 127 775 0 129 124 130 125 ?1 29 128
 398 0 130 131 125 .0238125 -.047625 -.0254 18 130 396 0 132 127 133 128 ?1 29 1
31 395 0 133 134 128 .0238125 -.047625 -.05588 18 133 393 0 135 130 136 131 ?1 2
9 134 384 0 136 137 131 .0650875 -.015875 -.0254 18 136 382 0 138 133 139 134 ?1
 29 137 381 0 139 140 134 .0650875 -.015875 -.05588 18 139 379 0 141 136 142 137
 ?1 29 140 373 0 142 143 137 .03175 -.0396875 -.0254 18 142 371 0 144 139 145 14
0 ?1 29 143 370 0 145 146 140 .03175 -.0396875 -.05588 18 145 368 0 147 142 148
 143 ?1 29 146 362 0 148 149 143 .015875 -.0396875 -.0254 18 148 360 0 150 145 1
51 146 ?1 29 149 359 0 151 152 146 .015875 -.0396875 -.05588 18 151 357 0 153 14
8 154 149 ?1 29 152 351 0 154 155 149 .05715 -.0238125 -.0254 18 154 349 0 156 1
51 157 152 ?1 29 155 348 0 157 158 152 .05715 -.0238125 -.05588 18 157 346 0 159
 154 160 155 ?1 29 158 340 0 160 161 155 .073025 -.0238125 -.0254 18 160 338 0 1
62 157 163 158 ?1 29 161 337 0 163 164 158 .073025 -.0238125 -.05588 18 163 335
 0 165 160 166 161 ?1 29 164 182 0 167 168 161 .0889 0 -.05588 18 167 157 0 169
 170 171 164 ?1 29 168 183 0 171 172 164 .0889 -.0635 -.05588 18 171 158 0 173 1
67 174 168 ?1 29 172 184 0 174 175 168 .073025 -.0635 -.05588 18 174 159 0 176 1
71 177 172 ?1 29 175 187 0 177 178 172 .05715 -.0635 -.05588 18 177 162 0 179 17
4 180 175 ?1 29 178 188 0 180 181 175 0 -.0635 -.05588 18 180 163 0 182 177 183
 178 ?1 29 181 189 0 183 184 178 0 0 -.05588 18 183 164 0 185 180 186 181 ?1 29
 184 190 0 186 187 181 .015875 0 -.05588 18 186 165 0 188 183 189 184 ?1 29 187
 193 0 189 190 184 .03175 0 -.05588 18 189 168 0 191 186 192 187 ?1 29 190 75 0
 166 193 187 .0889 0 -.0254 18 166 73 0 194 163 195 190 ?1 29 193 72 0 195 196 1
90 .0889 -.0635 -.0254 18 195 70 0 197 166 198 193 ?1 29 196 69 0 198 199 193 .0
73025 -.0635 -.0254 18 198 67 0 200 195 201 196 ?1 29 199 60 0 201 202 196 .0571
5 -.0635 -.0254 18 201 58 0 203 198 204 199 ?1 29 202 57 0 204 205 199 0 -.0635
 -.0254 18 204 55 0 206 201 207 202 ?1 29 205 54 0 207 208 202 0 0 -.0254 18 207
 52 0 209 204 210 205 ?1 29 208 51 0 210 211 205 .015875 0 -.0254 18 210 49 0 21
2 207 170 208 ?1 29 211 42 0 170 213 208 .03175 0 -.0254 18 170 40 0 214 210 167
 211 ?1 29 213 1644 0 215 216 211 .052451 -.0635 -.0254 18 215 1598 0 217 218 21
9 213 ?1 29 216 1645 0 219 220 213 .047371 -.0635 -.0254 18 219 1600 0 221 215 2
22 216 ?1 29 220 1646 0 222 223 216 .047371 -.04445 -.0254 18 222 1594 0 224 219
 0 220 ?1 29 223 1647 0 192 225 220 .052451 -.04445 -.027305 18 192 1593 0 226 1
89 227 223 ?1 29 225 1648 0 227 228 223 .052451 -.0635 -.027305 18 227 1595 0 22
9 192 230 225 ?1 29 228 1649 0 230 231 225 .047371 -.0635 -.027305 18 230 1597 0
 232 227 218 228 ?1 29 231 1650 0 218 0 228 .047371 -.04445 -.027305 18 218 1599
 0 233 230 215 231 ?1 17 233 0 234 224 232 218 235 236 0 237 -15 255 234 1616 0
 221 238 0 17 224 0 234 221 233 222 239 240 0 241 +17 232 0 234 233 221 230 242
 243 0 235 -17 235 0 244 229 237 230 233 236 0 245 +16 236 1577 0 ?235 246 247 2
48 0 0 1 17 237 0 244 235 249 218 250 247 0 239 +15 244 1619 0 237 251 0 17 249
 0 244 237 229 192 252 253 0 250 +17 250 0 254 108 239 192 237 247 0 255 -16 247
 1565 0 ?237 236 256 257 0 0 1 17 239 0 254 250 258 218 224 240 0 0 -15 254 711
 0 258 259 0 17 258 0 254 239 260 222 261 262 0 0 +16 240 1568 0 ?224 243 253 26
3 0 0 1 16 243 1580 0 ?242 264 240 265 0 0 1 16 253 1569 0 ?249 240 246 266 0 0
 1 30 255 263 1631 0 240 265 267 0 +.047371 -.04445 -.027305 0 0 1 30 265 1632 0
 243 268 263 0 +.047371 -.0635 -.027305 0 0 1 31 267 1486 0 269 263 270 0 +.0444
5 -.03175 -.042672 0 0 1 0 1 0 .00127 16 269 1463 0 ?271 272 273 267 0 0 1 31 27
0 1485 0 273 267 274 0 +.04445 -.03175 -.042418 0 0 1 0 1 0 .00127 16 273 1466 0
 ?275 269 264 270 0 0 1 31 274 1444 0 272 270 276 0 +.04445 -.03175 -.038608 0 0
 1 0 1 0 .00127 16 272 1424 0 ?277 278 269 274 0 0 1 30 276 1116 0 279 274 280 0
 +.05588 -.01905 -.042418 -1 -303538665962696e-30 0 16 279 1192 0 ?281 282 283 2
76 0 0 1 30 280 1115 0 282 276 284 0 +.05588 -.04445 -.042418 1365923996832132e-
31 1 0 16 282 1172 0 ?285 286 279 280 0 0 1 30 284 1114 0 286 280 287 0 +.05588
 -.04445 -.042418 1 -37942333245337e-30 0 16 286 1144 0 ?288 289 282 284 0 0 1 3
0 287 1113 0 289 284 290 0 +.03302 -.04445 -.042418 597591748614058e-31 -1 0 16
 289 1200 0 ?291 292 286 287 0 0 1 30 290 1112 0 278 287 293 0 +.05588 -.01905 -
.05588 -1 -303538665962696e-30 0 16 278 1228 0 ?38 294 272 290 0 0 1 30 293 1111
 0 294 290 295 0 +.05588 -.04445 -.05588 1365923996832132e-31 1 0 16 294 1164 0
 ?296 297 278 293 0 0 1 30 295 1110 0 297 293 298 0 +.05588 -.04445 -.05588 1 -3
7942333245337e-30 0 16 297 1136 0 ?299 283 294 295 0 0 1 30 298 1109 0 283 295 3
00 0 +.03302 -.04445 -.05588 597591748614058e-31 -1 0 16 283 1248 0 ?37 279 297
 298 0 0 1 30 300 741 0 301 298 302 0 +.05588 -.01905 -.038862 -1 -3035386659626
96e-30 0 16 301 820 0 ?303 304 305 300 0 0 1 30 302 740 0 304 300 306 0 +.03302
 -.04445 -.038862 597591748614058e-31 -1 0 16 304 826 0 ?307 308 301 302 0 0 1 3
0 306 739 0 308 302 309 0 +.05588 -.04445 -.038862 1 -37942333245337e-30 0 16 30
8 804 0 ?310 311 304 306 0 0 1 30 309 738 0 311 306 312 0 +.05588 -.04445 -.0388
62 1365923996832132e-31 1 0 16 311 782 0 ?313 314 308 309 0 0 1 30 312 737 0 292
 309 315 0 +.05588 -.01905 -.0254 -1 -303538665962696e-30 0 16 292 852 0 ?316 31
7 289 312 0 0 1 30 315 736 0 317 312 318 0 +.03302 -.04445 -.0254 59759174861405
8e-31 -1 0 16 317 868 0 ?319 262 292 315 0 0 1 30 318 735 0 262 315 320 0 +.0558
8 -.04445 -.0254 1 -37942333245337e-30 0 16 262 798 0 ?258 305 317 318 0 0 1 30
 320 734 0 305 318 321 0 +.05588 -.04445 -.0254 1365923996832132e-31 1 0 16 305
 776 0 ?322 301 262 320 0 0 1 31 321 621 0 314 320 323 0 +693889390390723e-32 -.
03175 -.04064 -1 0 0 0 0 1 .00734187 16 314 594 0 ?324 325 311 321 0 0 1 31 323
 619 0 325 321 326 0 +.015875 -.03175 -.04064 -1 -291397119324188e-30 0 29139711
9324188e-30 -1 0 .00734187 16 325 595 0 ?327 328 314 323 0 0 1 31 326 566 0 328
 323 329 0 +.0889 -.03175 -.04064 1 0 0 0 0 -1 .00734187 16 328 539 0 ?330 331 3
25 326 0 0 1 31 329 564 0 331 326 332 0 +.073025 -.03175 -.04064 1 0 0 0 0 -1 .0
0734187 16 331 540 0 ?333 334 328 329 0 0 1 30 332 5 0 335 329 336 0 +.03175 0 -
.0254 -1 0 0 16 335 4 0 ?337 338 339 332 0 0 1 30 336 8 0 338 332 340 0 +.03175
 0 -.0254 0 -1 0 16 338 7 0 ?341 342 335 336 0 0 1 30 340 14 0 342 336 343 0 +.0
15875 0 -.0254 -291397119324188e-30 1 0 16 342 361 0 ?212 344 338 340 0 0 1 30 3
43 17 0 344 340 345 346 +0 0 -.0254 -1 0 0 16 344 16 0 ?209 347 342 343 0 0 1 30
 345 20 0 347 343 348 0 +0 -.0635 -.0254 0 -1 0 141 255 346 349 346 346 343 133
 349 2634 0 1 350 16 0 +343 .015875 0 -.0254 0 0 -.0254 -.015875 0 133 350 2463
 0 1 351 349 0 +17 .073025 -.0635 -.0254 .0889 -.0635 -.0254 -.015875 0 133 16 2
668 0 1 349 4 0 +352 .015875 0 -.05588 0 0 -.05588 -.015875 0 30 352 177 0 353 3
54 355 356 +0 0 -.05588 -1 0 0 16 353 137 0 ?185 357 358 352 0 0 1 30 354 178 0
 358 359 352 0 +.015875 0 -.05588 -291397119324188e-30 1 0 30 355 176 0 357 352
 360 0 +0 -.0635 -.05588 0 -1 0 141 356 361 362 363 352 133 361 2195 0 1 0 364 0
 +352 .015875 0 -.05588 0 0 -.05588 -.015875 0 141 362 16 363 356 352 141 363 35
1 356 362 352 133 351 2453 0 1 364 350 0 +352 .015875 0 -.05588 0 0 -.05588 -.01
5875 0 133 364 2205 0 1 361 351 0 +17 .073025 -.0635 -.0254 .0889 -.0635 -.0254
 -.015875 0 30 17 35 0 365 366 367 368 +.0889 -.0635 -.0254 1 0 0 16 365 34 0 ?1
97 369 370 17 0 0 1 30 366 32 0 370 371 17 0 +.073025 -.0635 -.0254 0 -1 0 30 36
7 38 0 369 17 372 0 +.0889 0 -.0254 -218547839493141e-30 1 0 141 368 364 373 374
 17 141 373 4 374 368 17 141 374 350 368 373 17 16 369 37 0 ?194 375 365 367 0 0
 1 30 372 181 0 376 367 359 0 +.03175 0 -.05588 -1 0 0 16 376 153 0 ?377 378 379
 372 0 0 1 30 359 180 0 378 372 354 0 +.03175 0 -.05588 0 -1 0 16 378 149 0 ?380
 358 376 359 0 0 1 17 380 0 381 144 382 145 191 378 0 383 +16 358 358 0 ?188 353
 378 354 0 0 1 17 188 0 384 385 386 186 387 358 0 388 +15 384 222 0 389 390 0 17
 385 0 384 389 188 210 388 391 0 392 -17 386 0 384 188 389 151 393 394 0 387 +17
 387 0 395 135 396 151 188 358 0 0 -17 388 0 397 185 392 186 385 391 0 396 +15 3
97 220 0 185 398 0 17 185 0 397 399 388 183 396 353 0 400 +17 392 0 397 388 399
 210 209 344 0 0 -16 391 202 0 ?388 401 402 403 0 0 1 17 396 0 395 387 404 186 1
85 353 0 0 -15 395 108 0 405 406 36 17 404 0 395 396 407 183 182 357 0 0 -17 407
 0 395 404 408 180 179 409 0 0 -17 182 0 410 411 400 180 404 357 0 412 +16 357 1
33 0 ?182 409 353 355 0 0 1 16 409 129 0 ?179 413 357 360 0 0 1 17 179 0 414 415
 412 177 407 409 0 416 +16 413 125 0 ?417 418 409 419 0 0 1 30 360 175 0 409 355
 419 0 +.05715 -.0635 -.05588 1 0 0 30 419 174 0 413 360 420 0 +.05715 -.015875
 -.05588 145698559662094e-30 1 0 30 420 172 0 418 419 421 0 +.073025 -.0635 -.05
588 0 -1 0 16 418 336 0 ?176 422 413 420 0 0 1 30 421 171 0 422 420 423 0 +.0889
 -.0635 -.05588 1 0 0 16 422 113 0 ?173 339 418 421 0 0 1 30 423 170 0 339 421 4
24 0 +.0889 0 -.05588 -218547839493141e-30 1 0 16 339 109 0 ?169 335 422 423 0 0
 1 30 424 230 0 375 423 425 0 +.0889 0 -.0254 0 0 -1 16 375 194 0 ?426 427 369 4
24 0 0 1 30 425 231 0 427 424 428 0 +.0889 -.0635 -.0254 0 0 -1 16 427 195 0 ?42
9 430 375 425 0 0 1 30 428 232 0 430 425 431 0 +.073025 -.0635 -.0254 0 0 -1 16
 430 196 0 ?432 433 427 428 0 0 1 30 431 235 0 433 428 434 0 +.05715 -.0635 -.02
54 0 0 -1 16 433 199 0 ?416 435 430 431 0 0 1 30 434 236 0 435 431 436 0 +0 -.06
35 -.0254 0 0 -1 16 435 200 0 ?412 402 433 434 0 0 1 30 436 237 0 402 434 403 0
 +0 0 -.0254 0 0 -1 16 402 201 0 ?400 391 435 436 0 0 1 30 403 238 0 391 436 437
 0 +.015875 0 -.0254 0 0 -1 30 437 241 0 401 403 438 0 +.03175 0 -.0254 0 0 -1 1
6 401 205 0 ?382 439 391 437 0 0 1 30 438 343 0 439 437 440 0 +.073025 -.0238125
 -.05588 0 0 -1 16 439 341 0 ?441 442 401 438 0 0 1 30 440 354 0 442 438 443 0 -
.05715 -.0238125 -.0254 0 0 -1 16 442 352 0 ?156 394 439 440 0 0 1 30 443 365 0
 394 440 444 0 +.015875 -.0396875 -.05588 0 0 -1 16 394 363 0 ?386 445 442 443 0
 0 1 30 444 376 0 445 443 446 0 -.03175 -.0396875 -.0254 0 0 -1 16 445 374 0 ?14
4 447 394 444 0 0 1 31 446 407 0 447 444 448 0 -.0650875 -.0238125 -.05588 0 0 -
1 0 -1 0 .0079375 16 447 380 0 ?141 449 445 446 0 0 1 31 448 408 0 449 446 450 0
 +.0650875 -.0238125 -.0254 0 0 -1 0 -1 0 .0079375 16 449 383 0 ?162 451 447 448
 0 0 1 31 450 409 0 451 448 452 0 -.0650875 -.0238125 -.05588 0 0 -1 0 -1 0 .007
9375 16 451 385 0 ?159 453 449 450 0 0 1 31 452 410 0 453 450 454 0 +.0650875 -.
0238125 -.0254 0 0 -1 0 -1 0 .0079375 16 453 389 0 ?138 455 451 452 0 0 1 31 454
 411 0 455 452 456 0 -.0238125 -.0396875 -.05588 0 0 -1 0 -1 0 .0079375 16 455 3
94 0 ?135 457 453 454 0 0 1 31 456 412 0 457 454 458 0 +.0238125 -.0396875 -.025
4 0 0 -1 0 -1 0 .0079375 16 457 397 0 ?150 459 455 456 0 0 1 31 458 413 0 459 45
6 460 0 -.0238125 -.0396875 -.05588 0 0 -1 0 -1 0 .0079375 16 459 399 0 ?147 461
 457 458 0 0 1 31 460 414 0 461 458 462 0 +.0238125 -.0396875 -.0254 0 0 -1 0 -1
 0 .0079375 16 461 403 0 ?132 463 459 460 0 0 1 30 462 451 0 379 460 464 0 +.065
0875 -.015875 -.05588 0 0 -1 16 379 439 0 ?465 376 334 462 0 0 1 30 464 483 0 33
4 462 466 0 +.0238125 -.047625 -.05588 0 0 -1 16 334 471 0 ?467 379 331 464 0 0
 1 30 466 789 0 463 464 468 0 -.05588 -.022479 -.038862 0 0 1 16 463 787 0 ?120
 469 461 466 0 0 1 30 468 794 0 469 466 470 0 +.05588 -.041021 -.0254 0 0 1 16 4
69 792 0 ?471 472 463 468 0 0 1 30 470 811 0 472 468 473 0 +.036449 -.04445 -.02
54 0 0 1 16 472 809 0 ?260 474 469 470 0 0 1 30 473 816 0 475 470 476 0 -.052451
 -.04445 -.038862 0 0 1 16 475 814 0 ?226 477 474 473 474 474 1 31 476 833 0 477
 473 478 0 -.036449 -.041021 -.038862 0 0 -1 0 -1 0 .003429 16 477 831 0 ?111 47
9 475 476 0 0 1 31 478 838 0 479 476 480 0 -.036449 -.022479 -.038862 0 0 -1 0 -
1 0 .003429 16 479 836 0 ?99 481 477 478 0 0 1 31 480 843 0 481 478 482 0 -.0524
51 -.022479 -.038862 0 0 -1 0 -1 0 .003429 16 481 841 0 ?105 483 479 480 0 0 1 3
1 482 848 0 483 480 484 0 -.052451 -.041021 -.038862 0 0 -1 0 -1 0 .003429 16 48
3 846 0 ?123 485 481 482 0 0 1 30 484 859 0 485 482 486 0 -.036449 -.01905 -.038
862 0 0 1 16 485 857 0 ?102 487 483 484 0 0 1 30 486 864 0 487 484 488 0 +.05245
1 -.01905 -.0254 0 0 1 16 487 862 0 ?489 490 485 486 0 0 1 30 488 875 0 490 486
 491 0 -.03302 -.041021 -.038862 0 0 1 16 490 873 0 ?96 492 487 488 0 0 1 30 491
 880 0 492 488 493 0 +.03302 -.022479 -.0254 0 0 1 16 492 878 0 ?494 495 490 491
 0 0 1 31 493 899 0 495 491 496 0 +.052451 -.041021 -.0254 0 0 -1 0 -1 0 .003429
 16 495 883 0 ?497 498 492 493 0 0 1 31 496 900 0 498 493 499 0 +.052451 -.02247
9 -.0254 0 0 -1 0 -1 0 .003429 16 498 887 0 ?126 500 495 496 0 0 1 31 499 901 0
 500 496 501 0 +.036449 -.022479 -.0254 0 0 -1 0 -1 0 .003429 16 500 891 0 ?90 5
02 498 499 0 0 1 31 501 902 0 502 499 503 0 +.036449 -.041021 -.0254 0 0 -1 0 -1
 0 .003429 16 502 895 0 ?84 504 500 501 0 0 1 30 503 1153 0 504 501 505 0 -.0364
49 -.04445 -.042418 0 0 -1 16 504 1151 0 ?76 506 502 503 0 0 1 30 505 1159 0 506
 503 507 0 +.052451 -.04445 -.05588 0 0 -1 16 506 1157 0 ?508 509 504 505 0 0 1
 30 507 1181 0 509 505 510 0 +.05588 -.022479 -.05588 0 0 -1 16 509 1179 0 ?511
 512 506 507 0 0 1 30 510 1187 0 512 507 513 0 -.05588 -.041021 -.042418 0 0 -1
 16 512 1185 0 ?64 514 509 510 0 0 1 31 513 1209 0 514 510 515 0 -.036449 -.0410
21 -.042418 0 0 1 0 1 0 .003429 16 514 1207 0 ?49 516 512 513 0 0 1 31 515 1214
 0 516 513 517 0 -.036449 -.022479 -.042418 0 0 1 0 1 0 .003429 16 516 1212 0 ?5
5 518 514 515 0 0 1 31 517 1219 0 518 515 519 0 -.052451 -.022479 -.042418 0 0 1
 0 1 0 .003429 16 518 1217 0 ?61 520 516 517 0 0 1 31 519 1224 0 520 517 521 0 -
.052451 -.041021 -.042418 0 0 1 0 1 0 .003429 16 520 1222 0 ?73 522 518 519 0 0
 1 30 521 1237 0 522 519 523 0 +.036449 -.01905 -.05588 0 0 -1 16 522 1235 0 ?52
4 525 520 521 0 0 1 30 523 1243 0 525 521 526 0 -.052451 -.01905 -.042418 0 0 -1
 16 525 1241 0 ?58 527 522 523 0 0 1 30 526 1257 0 527 523 528 0 +.03302 -.04102
1 -.05588 0 0 -1 16 527 1255 0 ?33 529 525 526 0 0 1 30 528 1263 0 529 526 530 0
 -.03302 -.022479 -.042418 0 0 -1 16 529 1261 0 ?52 531 527 528 0 0 1 31 530 128
3 0 531 528 532 0 -.052451 -.041021 -.05588 0 0 -1 0 -1 0 .003429 16 531 1267 0
 ?70 533 529 530 0 0 1 31 532 1284 0 533 530 534 0 -.052451 -.022479 -.05588 0 0
 -1 0 -1 0 .003429 16 533 1271 0 ?46 40 531 532 0 0 1 31 534 1285 0 40 532 22 0
 -.036449 -.022479 -.05588 0 0 -1 0 -1 0 .003429 16 40 1275 0 ?34 26 533 534 0 0
 1 31 22 1286 0 26 534 8 0 -.036449 -.041021 -.05588 0 0 -1 0 -1 0 .003429 16 26
 1279 0 ?32 11 40 22 0 0 1 17 32 0 36 299 37 80 27 26 0 535 +15 36 1019 0 299 40
6 0 17 299 0 36 70 32 77 535 297 0 0 +17 37 0 36 32 34 12 41 283 0 0 +17 535 0 5
36 76 508 80 299 297 0 31 -15 536 1086 0 288 537 0 17 76 0 536 288 535 74 31 504
 0 538 +17 508 0 536 535 288 77 539 506 0 299 +17 31 0 29 27 540 80 76 504 0 0 -
15 29 1366 0 540 20 0 17 540 0 29 31 30 74 49 514 0 0 -17 30 0 29 540 27 47 33 5
27 0 0 -17 49 0 541 542 538 47 540 514 0 291 +15 541 1093 0 543 544 0 17 542 0 5
41 55 49 50 291 289 0 545 -17 538 0 541 49 73 74 288 286 0 540 -17 291 0 546 33
 52 47 542 289 0 30 +15 546 1082 0 41 547 0 17 33 0 546 41 291 12 30 527 0 37 +1
7 52 0 546 291 41 50 548 529 0 542 +17 41 0 546 52 33 28 37 283 0 548 -17 548 0
 549 39 545 28 52 529 0 0 -15 549 1345 0 545 550 0 17 39 0 549 551 548 35 34 40
 0 524 -17 545 0 549 548 551 50 55 516 0 0 -17 551 0 549 545 39 53 524 522 0 0 -
17 55 0 541 552 542 53 545 516 0 281 +17 552 0 541 61 55 56 281 279 0 553 -17 28
1 0 554 524 58 53 552 279 0 551 +15 554 1078 0 555 556 0 17 524 0 554 555 281 35
 551 522 0 38 +17 58 0 554 281 555 56 557 525 0 552 +17 555 0 554 58 524 42 38 2
78 0 557 -17 557 0 558 67 553 42 58 525 0 0 -15 558 1324 0 553 559 0 17 67 0 558
 560 557 65 46 533 0 511 -17 553 0 558 557 560 56 61 518 0 0 -17 560 0 558 553 6
7 59 511 509 0 0 -17 61 0 541 543 552 59 553 518 0 285 +17 543 0 541 73 61 62 28
5 282 0 561 -17 285 0 562 511 64 59 543 282 0 560 +15 562 1090 0 563 564 0 17 51
1 0 562 563 285 65 560 509 0 296 +17 64 0 562 285 563 62 565 512 0 543 +17 563 0
 562 64 511 68 296 294 0 565 -17 565 0 566 79 561 68 64 512 0 0 -15 566 1303 0 5
61 567 0 17 79 0 566 539 565 77 70 531 0 508 -17 561 0 566 565 539 62 73 520 0 0
 -17 539 0 566 561 79 71 508 506 0 0 -17 73 0 541 538 543 71 561 520 0 288 +17 2
88 0 536 508 76 71 538 286 0 539 +17 70 0 36 296 299 68 79 531 0 563 +17 296 0 3
6 46 70 65 563 294 0 0 +17 46 0 36 38 296 42 67 533 0 555 +17 38 0 36 34 46 35 5
55 278 0 0 +14 255 567 1302 568 ?559 544 566 6 569 -0 0 559 544 24 81 1 568 2718
 570 567 0 0 571 572 573 14 559 1323 572 ?550 567 558 6 574 -0 0 550 567 24 14 5
44 1091 571 ?567 564 575 6 576 -0 0 567 564 24 51 569 1314 0 567 577 574 0 +.052
451 -.041021 -.042418 0 0 1 .003429 0 1 0 13 24 77 0 0 0 0 0 0 10 18 14 18 1418
 578 ?406 0 579 6 580 -0 0 406 0 24 81 1 578 2686 570 18 0 0 0 581 582 14 406 10
36 581 ?583 18 395 6 584 +0 0 583 18 24 15 579 718 0 310 18 585 50 255 580 729 0
 18 586 587 0 +.03302 -.01905 -.038862 0 0 -1 0 -1 0 50 586 1099 0 556 588 580 0
 +.05588 -.01905 -.042418 303538665962696e-30 -1 0 1 303538665962696e-30 0 50 58
7 727 0 589 580 590 0 +.05588 -.04445 -.038862 1 -1365923996832132e-31 0 1365923
996832132e-31 1 0 14 589 704 591 ?259 592 593 6 587 -0 0 259 592 24 50 590 726 0
 259 587 594 0 +.05588 -.04445 -.038862 -37942333245337e-30 -1 0 1 -379423332453
37e-30 0 14 259 708 595 ?596 589 254 6 590 -0 0 596 589 24 50 594 725 0 596 590
 597 0 +.03302 -.04445 -.038862 -1 -597591748614058e-31 0 597591748614058e-31 -1
 0 14 596 712 598 ?599 259 600 6 594 -0 0 599 259 24 50 597 724 0 592 594 601 0
 +.05588 -.01905 -.038862 -303538665962696e-30 1 0 -1 -303538665962696e-30 0 14
 592 700 602 ?589 603 604 6 597 -0 0 589 603 24 51 601 618 0 603 597 605 0 +6938
89390390723e-32 -.03175 -.04064 -1 0 0 .00734187 0 0 1 14 603 609 606 ?592 607 6
08 6 601 -0 0 592 607 24 51 605 563 0 607 601 609 0 +.0889 -.03175 -.04064 1 0 0
 .00734187 0 0 -1 14 607 554 610 ?603 611 612 6 605 -0 0 603 611 24 50 609 2 0 6
13 605 584 0 +.0889 0 -.0254 0 0 -1 0 -1 0 14 613 1 614 ?615 616 617 6 609 -0 0
 615 616 24 50 584 169 0 406 609 618 0 +.0889 0 -.05588 0 0 -1 0 -1 0 50 618 242
 0 619 584 620 0 +.0889 0 -.0254 -1 -218547839493141e-30 0 218547839493141e-30 -
1 0 14 619 534 621 ?622 583 623 6 618 -0 0 622 583 24 50 620 243 0 616 618 624 0
 +.0889 -.0635 -.0254 0 1 0 0 0 -1 14 616 209 625 ?613 626 627 6 620 -0 0 613 62
6 24 50 624 244 0 626 620 628 0 +.073025 -.0635 -.0254 1 0 0 0 0 -1 14 626 211 6
29 ?616 630 631 6 624 -0 0 616 630 24 50 628 246 0 630 624 632 0 +.05715 -.01587
5 -.0254 -1 145698559662094e-30 0 -145698559662094e-30 -1 0 14 630 215 633 ?626
 634 635 6 628 -0 0 626 634 24 50 632 247 0 634 628 636 0 +.05715 -.0635 -.0254
 0 1 0 0 0 -1 14 634 217 637 ?630 398 414 6 632 -0 0 630 398 24 50 636 248 0 583
 632 638 0 +0 -.0635 -.0254 1 0 0 0 0 -1 14 583 589 639 ?619 406 410 6 636 -0 0
 619 406 24 50 638 249 0 398 636 640 0 +0 0 -.0254 0 -1 0 0 0 1 14 398 221 641 ?
634 390 397 6 638 -0 0 634 390 24 50 640 250 0 390 638 642 0 +.015875 0 -.0254 -
1 -291397119324188e-30 0 291397119324188e-30 -1 0 14 390 223 643 ?398 644 645 6
 640 -0 0 398 644 24 50 642 252 0 644 640 646 0 +.03175 0 -.0254 1 0 0 0 0 -1 14
 644 227 647 ?390 622 381 6 642 -0 0 390 622 24 50 646 253 0 622 642 648 0 +.031
75 0 -.0254 0 -1 0 0 0 1 14 622 229 649 ?644 619 650 6 646 -0 0 644 619 24 51 64
8 450 0 651 646 652 0 +.0650875 -.0238125 -.0254 0 0 1 .0079375 0 1 0 14 651 432
 653 ?654 615 655 6 648 -0 0 654 615 24 51 652 449 0 615 648 656 0 +.0650875 -.0
238125 -.0254 0 0 1 .0079375 0 1 0 14 615 430 657 ?651 613 658 6 652 -0 0 651 61
3 24 51 656 482 0 611 652 659 0 +.0238125 -.0396875 -.0254 0 0 1 .0079375 0 1 0
 14 611 464 660 ?607 654 661 6 656 -0 0 607 654 24 51 659 481 0 654 656 662 0 +.
0238125 -.0396875 -.0254 0 0 1 .0079375 0 1 0 14 654 462 663 ?611 651 664 6 659
 -0 0 611 651 24 51 662 930 0 599 659 665 0 +.052451 -.041021 -.038862 0 0 -1 .0
03429 0 -1 0 14 599 918 666 ?667 596 668 6 662 -0 0 667 596 24 51 665 951 0 667
 662 669 0 +.052451 -.022479 -.038862 0 0 -1 .003429 0 -1 0 14 667 939 670 ?671
 599 672 6 665 -0 0 671 599 24 51 669 972 0 671 665 577 0 +.036449 -.022479 -.03
8862 0 0 -1 .003429 0 -1 0 14 671 960 673 ?674 667 675 6 669 -0 0 674 667 24 51
 577 993 0 674 669 569 0 +.036449 -.041021 -.038862 0 0 -1 .003429 0 -1 0 14 674
 981 676 ?556 671 677 6 577 -0 0 556 671 24 81 1 676 2712 570 674 0 0 673 678 67
9 14 556 1075 678 ?547 674 554 6 586 +0 0 547 674 24 15 677 982 0 680 674 0 17 6
80 0 677 681 682 94 111 477 0 0 -17 681 0 677 117 680 82 96 490 0 0 -17 682 0 67
7 680 117 109 260 472 0 0 -17 111 0 579 310 307 109 680 477 0 683 +17 310 0 579
 123 111 106 683 308 0 684 +17 307 0 579 111 99 94 685 304 0 680 +17 683 0 254 2
60 108 109 310 308 0 682 -17 260 0 254 258 683 115 682 472 0 261 +17 108 0 254 6
83 250 106 255 474 0 310 +17 255 0 668 686 684 192 108 474 0 0 -16 474 1523 0 ?1
08 475 472 473 475 475 1 15 668 919 0 684 599 0 17 686 0 668 129 255 112 226 475
 0 0 -17 684 0 668 255 687 106 123 483 0 0 -17 687 0 668 684 129 121 471 469 0 0
 -17 123 0 579 313 310 121 684 483 0 688 +17 313 0 579 105 123 118 688 311 0 689
 +17 688 0 593 471 120 121 313 311 0 687 -15 593 707 0 688 589 0 17 471 0 593 32
2 688 127 687 469 0 690 +17 120 0 593 688 322 118 691 463 0 313 +17 322 0 593 12
0 471 124 690 305 0 691 +17 691 0 672 93 689 124 120 463 0 0 -15 672 940 0 689 6
67 0 17 93 0 672 692 691 91 126 498 0 489 -17 689 0 672 691 692 118 105 481 0 0
 -17 692 0 672 689 93 103 489 487 0 0 -17 105 0 579 303 313 103 689 481 0 693 +1
7 303 0 579 99 105 100 693 301 0 694 +17 693 0 604 489 102 103 303 301 0 692 -15
 604 703 0 693 592 0 17 489 0 604 316 693 91 692 487 0 695 +17 102 0 604 693 316
 100 696 485 0 303 +17 316 0 604 102 489 88 695 292 0 696 +17 696 0 675 87 694 8
8 102 485 0 0 -15 675 961 0 694 671 0 17 87 0 675 697 696 85 90 500 0 494 -17 69
4 0 675 696 697 100 99 479 0 0 -17 697 0 675 694 87 97 494 492 0 0 -17 99 0 579
 307 303 97 694 479 0 685 +17 685 0 600 494 96 97 307 304 0 697 -15 600 715 0 68
5 596 0 17 494 0 600 319 685 85 697 492 0 698 +17 96 0 600 685 319 94 681 490 0
 307 +17 319 0 600 96 494 82 698 317 0 681 +17 698 0 617 90 84 85 319 317 0 0 -1
5 617 3 0 497 613 0 17 90 0 617 695 698 88 87 500 0 316 +17 84 0 617 698 261 82
 117 502 0 319 +17 261 0 617 84 241 115 258 262 0 0 -17 117 0 677 682 681 115 84
 502 0 260 -17 241 0 617 261 699 222 221 700 0 258 -17 699 0 617 241 206 219 701
 702 0 0 +17 221 0 234 232 224 219 241 700 0 242 +16 700 1584 0 ?221 256 0 703 0
 0 1 16 256 1590 0 ?114 247 700 704 0 0 1 30 703 1637 0 700 266 704 0 +.047371 -
.04445 -.0254 273184799366426e-30 -1 0 30 266 1639 0 253 705 703 0 +.052451 -.04
445 -.027305 -145698559662094e-29 1 0 30 704 1635 0 256 703 268 0 +.052451 -.044
45 -.0254 -145698559662094e-29 1 0 30 268 1633 0 264 704 265 0 +.052451 -.0635 -
.027305 0 0 1 16 264 1576 0 ?217 273 243 268 0 0 1 17 217 0 706 114 252 215 707
 264 0 708 +15 706 1608 0 114 709 0 17 114 0 706 226 217 112 708 256 0 497 +17 2
52 0 706 217 226 227 249 253 0 707 -17 707 0 414 245 710 227 217 264 0 0 -17 708
 0 617 203 497 215 114 256 0 710 -17 203 0 617 711 708 201 710 712 0 415 +17 497
 0 617 708 690 112 129 495 0 686 +17 710 0 414 707 415 215 203 712 0 0 -15 414 1
551 0 710 634 0 17 415 0 414 710 179 201 416 433 0 713 -16 712 1541 0 ?203 702 3
47 348 702 702 1 16 702 22 0 ?699 714 712 348 712 712 1 16 347 19 0 ?206 712 344
 345 0 0 1 30 348 23 0 702 345 371 0 +.05715 -.0635 -.0254 1 0 0 30 371 26 0 714
 348 366 0 +.05715 -.015875 -.0254 145698559662094e-30 1 0 16 714 25 0 ?711 370
 702 371 0 0 1 17 711 0 617 138 203 154 713 714 0 715 +16 370 339 0 ?200 365 714
 366 0 0 1 17 200 0 617 197 162 198 716 370 0 717 +17 197 0 617 194 200 195 718
 365 0 719 +17 162 0 617 200 138 160 720 449 0 716 +17 716 0 721 441 717 160 200
 370 0 722 -17 717 0 721 716 176 198 432 430 0 718 -15 721 210 0 716 626 0 17 17
6 0 721 717 441 174 723 418 0 432 +17 432 0 627 173 718 174 717 430 0 724 +17 71
8 0 627 432 719 198 197 365 0 0 -15 627 208 0 173 616 0 17 719 0 627 718 173 195
 429 427 0 725 -17 173 0 627 719 432 171 724 422 0 429 +17 429 0 623 169 725 171
 719 427 0 726 +17 725 0 623 429 727 195 194 369 0 0 -15 623 206 0 169 619 728 1
7 727 0 623 725 169 166 426 375 0 729 -17 194 0 617 337 197 166 725 369 0 727 +1
7 337 0 617 341 194 170 729 335 0 730 +17 341 0 617 132 337 142 214 338 0 731 +1
7 729 0 650 426 730 166 337 335 0 0 -17 730 0 650 729 377 170 382 401 0 0 -15 65
0 228 0 377 622 0 17 377 0 650 730 426 189 405 376 0 0 +17 382 0 381 380 214 189
 730 401 0 377 +15 381 226 0 380 644 0 17 214 0 381 382 144 170 341 338 0 337 -1
7 144 0 381 214 380 142 383 445 0 341 +17 383 0 664 732 731 145 144 445 0 0 -15
 664 463 0 733 654 0 17 732 0 664 733 383 133 147 459 0 467 -17 731 0 664 383 73
3 142 132 461 0 0 -17 733 0 664 731 732 130 467 334 0 734 -17 132 0 617 150 341
 130 731 461 0 733 +17 150 0 617 212 132 148 734 457 0 389 +17 212 0 617 209 150
 210 389 342 0 385 +17 734 0 661 467 393 130 150 457 0 0 -17 389 0 384 386 385 1
48 212 342 0 393 -17 393 0 661 734 153 148 386 394 0 0 -15 661 465 0 734 611 0 1
7 153 0 661 393 467 151 135 455 0 386 -17 467 0 661 153 734 133 733 334 0 0 +17
 135 0 395 147 387 133 153 455 0 732 +17 147 0 395 191 135 145 732 459 0 380 +17
 191 0 395 405 147 189 380 378 0 382 -17 405 0 395 726 191 167 377 376 0 0 -17 7
26 0 395 724 405 171 169 339 0 0 -17 724 0 395 723 726 174 173 422 0 0 -17 169 0
 623 727 429 167 726 339 0 426 +17 426 0 650 377 729 167 727 375 0 405 +17 723 0
 395 141 724 163 176 418 0 0 -17 141 0 395 159 723 139 165 447 0 735 +17 159 0 3
95 408 141 157 735 451 0 417 +17 165 0 655 722 465 163 141 447 0 441 -17 735 0 6
58 736 737 139 159 451 0 465 -15 658 431 0 736 615 0 17 736 0 658 715 735 136 46
5 379 0 720 -17 737 0 658 735 715 157 156 442 0 0 -17 465 0 655 165 720 139 736
 379 0 0 +15 655 433 0 720 651 0 17 720 0 655 465 722 136 162 449 0 0 -17 722 0
 655 720 165 160 441 439 0 0 -17 441 0 721 176 716 163 722 439 0 723 +17 715 0 6
58 737 736 154 138 453 0 0 -17 156 0 635 713 417 154 737 442 0 711 +15 635 214 0
 417 630 0 17 713 0 635 416 156 201 711 714 0 0 -17 417 0 635 156 416 157 408 41
3 0 737 +17 416 0 635 417 713 177 415 433 0 408 +17 408 0 395 407 159 177 417 41
3 0 0 -17 138 0 617 162 711 136 715 453 0 736 +17 209 0 617 206 212 207 392 344
 0 399 +17 206 0 617 699 209 204 738 347 0 411 +17 399 0 397 392 185 207 400 402
 0 738 -17 400 0 410 182 738 183 399 402 0 404 +17 738 0 410 400 411 207 206 347
 0 0 -15 410 218 0 182 583 739 17 411 0 410 738 182 204 412 435 0 701 -17 412 0
 414 179 701 180 411 435 0 407 +17 701 0 414 412 242 204 699 702 0 0 -17 242 0 4
14 701 245 219 232 243 0 699 +17 245 0 414 242 707 230 229 246 0 0 -17 229 0 244
 249 235 227 245 246 0 252 +16 246 1573 0 ?229 253 236 705 0 0 1 30 705 1640 0 2
46 248 266 0 +.052451 -.0635 -.027305 1 0 0 30 248 1641 0 236 257 705 0 +.047371
 -.04445 -.027305 273184799366426e-30 -1 0 30 257 1642 0 247 0 248 0 +.052451 -.
04445 -.027305 -1 0 0 15 739 588 0 740 583 0 17 740 0 739 740 740 0 324 314 0 0
 -17 324 0 741 324 324 0 740 314 0 0 +15 741 613 0 324 603 0 15 728 533 0 742 61
9 0 17 742 0 728 742 742 0 330 328 0 0 -17 330 0 743 330 330 0 742 328 0 0 +15 7
43 558 0 330 607 0 17 690 0 617 497 126 127 322 305 0 0 -17 129 0 668 687 686 12
7 497 495 0 471 -17 126 0 617 690 695 124 93 498 0 322 +17 695 0 617 126 90 91 3
16 292 0 0 -17 226 0 706 252 114 192 686 475 0 249 +14 709 1605 744 ?238 745 706
 6 746 -0 0 238 745 24 81 1 744 2726 570 709 0 0 747 748 749 14 238 1613 748 ?25
1 709 234 6 750 -0 0 251 709 24 14 745 1474 747 ?709 751 752 6 753 +0 0 709 751
 24 50 746 1628 0 709 754 750 0 +.052451 -.04445 -.027305 1 145698559662094e-29
 0 -145698559662094e-29 1 0 50 754 1630 0 251 0 746 0 +.047371 -.04445 -.027305
 0 0 1 0 1 0 50 750 1626 0 238 746 753 0 +.047371 -.04445 -.027305 -1 -273184799
366426e-30 0 2731847993664265e-31 -1 0 50 753 1484 0 745 750 755 0 +.04445 -.031
75 -.042672 0 0 -1 0 1 0 51 755 1482 0 751 753 756 0 +.04445 -.03175 -.042672 0
 0 1 .00127 0 1 0 14 751 1469 757 ?745 758 759 6 755 +0 0 745 758 24 50 756 1442
 0 758 755 760 0 +.04445 -.03175 -.038608 0 0 1 0 1 0 14 758 1432 761 ?751 762 7
63 6 756 +0 0 751 762 24 51 760 1440 0 762 756 576 0 -.04445 -.03175 -.038608 0
 0 -1 .00127 0 -1 0 14 762 1427 764 ?758 20 765 6 760 -0 0 758 20 24 50 576 1104
 0 544 760 766 0 +.03302 -.01905 -.042418 0 0 1 0 -1 0 50 766 1102 0 547 576 767
 0 +.03302 -.04445 -.042418 1 597591748614058e-31 0 -597591748614058e-31 1 0 14
 547 1079 768 ?537 556 546 6 766 +0 0 537 556 24 50 767 1101 0 537 766 588 0 +.0
5588 -.04445 -.042418 37942333245337e-30 1 0 -1 37942333245337e-30 0 14 537 1083
 769 ?564 547 536 6 767 +0 0 564 547 24 50 588 1100 0 564 767 586 0 +.05588 -.04
445 -.042418 -1 1365923996832132e-31 0 -1365923996832132e-31 -1 0 14 564 1087 77
0 ?544 537 562 6 588 +0 0 544 537 24 81 1 770 2716 570 564 0 0 769 571 771 80 25
5 1 570 0 772 8001 0 0 0 0 3 5 0 0 0 FFFFTFTFFFFFFF2 81 1 769 2715 570 537 0 0 7
68 770 773 81 1 571 2717 570 544 0 0 770 568 774 83 255 3 771 .647058823529412 .
619607843137255 .588235294117647 83 3 774 .647058823529412 .619607843137255 .588
235294117647 81 1 768 2714 570 547 0 0 678 769 775 83 3 773 .647058823529412 .61
9607843137255 .588235294117647 81 1 678 2713 570 556 0 0 676 768 776 83 3 775 .6
47058823529412 .619607843137255 .588235294117647 83 3 776 .647058823529412 .6196
07843137255 .588235294117647 79 255 15 772 SDL/TYSA_COLOUR81 1 764 2722 570 762
 0 0 777 761 778 14 20 1365 777 ?762 550 29 6 7 -0 0 762 550 24 15 765 1430 0 77
9 762 780 17 779 0 765 779 779 0 277 272 0 0 -15 780 1431 0 25 762 0 17 25 0 780
 25 25 0 781 11 0 0 +17 781 0 585 781 781 0 25 11 0 0 -15 585 1416 0 781 18 0 17
 277 0 763 277 277 0 779 272 0 0 +15 763 1434 0 277 758 0 81 1 777 2721 570 20 0
 0 782 764 783 14 550 1344 782 ?20 559 549 6 21 -0 0 20 559 24 81 1 782 2720 570
 550 0 0 572 777 784 51 21 1356 0 550 574 7 0 +.036449 -.022479 -.042418 0 0 1 .
003429 0 1 0 51 574 1335 0 559 569 21 0 +.052451 -.022479 -.042418 0 0 1 .003429
 0 1 0 81 1 572 2719 570 559 0 0 568 782 785 83 3 784 .647058823529412 .61960784
3137255 .588235294117647 83 3 785 .647058823529412 .619607843137255 .58823529411
7647 83 3 783 .647058823529412 .619607843137255 .588235294117647 81 1 761 2723 5
70 758 0 0 764 757 786 83 3 778 .647058823529412 .619607843137255 .5882352941176
47 81 1 757 2724 570 751 0 0 761 747 787 83 3 786 .647058823529412 .619607843137
255 .588235294117647 81 1 747 2725 570 745 0 0 757 744 788 83 3 787 .64705882352
9412 .619607843137255 .588235294117647 83 3 788 .647058823529412 .61960784313725
5 .588235294117647 15 759 1472 0 271 751 789 17 271 0 759 271 271 0 790 269 0 0
 +15 789 1473 0 791 751 0 17 791 0 789 791 791 0 275 273 0 0 -17 275 0 575 275 2
75 0 791 273 0 0 +15 575 1457 0 275 544 541 17 790 0 752 790 790 0 271 269 0 0 -
15 752 1476 0 790 745 0 14 251 1617 792 ?0 238 244 6 754 +0 0 0 238 24 81 1 792
 2728 570 251 0 0 748 0 793 81 1 748 2727 570 238 0 0 744 792 794 83 3 793 .6470
58823529412 .619607843137255 .588235294117647 83 3 794 .647058823529412 .6196078
43137255 .588235294117647 83 3 749 .647058823529412 .619607843137255 .5882352941
17647 81 1 673 2711 570 671 0 0 670 676 795 83 3 679 .647058823529412 .619607843
137255 .588235294117647 81 1 670 2710 570 667 0 0 666 673 796 83 3 795 .64705882
3529412 .619607843137255 .588235294117647 81 1 666 2709 570 599 0 0 598 670 797
 83 3 796 .647058823529412 .619607843137255 .588235294117647 81 1 598 2708 570 5
96 0 0 595 666 798 83 3 797 .647058823529412 .619607843137255 .588235294117647 8
1 1 595 2707 570 259 0 0 591 598 799 83 3 798 .647058823529412 .619607843137255
 .588235294117647 81 1 591 2706 570 589 0 0 602 595 800 83 3 799 .64705882352941
2 .619607843137255 .588235294117647 81 1 602 2705 570 592 0 0 606 591 801 83 3 8
00 .647058823529412 .619607843137255 .588235294117647 81 1 606 2704 570 603 0 0
 610 602 802 83 3 801 .647058823529412 .619607843137255 .588235294117647 81 1 61
0 2703 570 607 0 0 660 606 803 83 3 802 .647058823529412 .619607843137255 .58823
5294117647 81 1 660 2702 570 611 0 0 663 610 804 83 3 803 .647058823529412 .6196
07843137255 .588235294117647 81 1 663 2701 570 654 0 0 653 660 805 83 3 804 .647
058823529412 .619607843137255 .588235294117647 81 1 653 2700 570 651 0 0 657 663
 806 83 3 805 .647058823529412 .619607843137255 .588235294117647 81 1 657 2699 5
70 615 0 0 614 653 807 83 3 806 .647058823529412 .619607843137255 .5882352941176
47 81 1 614 2698 570 613 0 0 625 657 808 83 3 807 .647058823529412 .619607843137
255 .588235294117647 81 1 625 2697 570 616 0 0 629 614 809 83 3 808 .64705882352
9412 .619607843137255 .588235294117647 81 1 629 2696 570 626 0 0 633 625 810 83
 3 809 .647058823529412 .619607843137255 .588235294117647 81 1 633 2695 570 630
 0 0 637 629 811 83 3 810 .647058823529412 .619607843137255 .588235294117647 81
 1 637 2694 570 634 0 0 641 633 812 83 3 811 .647058823529412 .619607843137255 .
588235294117647 81 1 641 2693 570 398 0 0 643 637 813 83 3 812 .647058823529412
 .619607843137255 .588235294117647 81 1 643 2692 570 390 0 0 647 641 814 83 3 81
3 .647058823529412 .619607843137255 .588235294117647 81 1 647 2691 570 644 0 0 6
49 643 815 83 3 814 .647058823529412 .619607843137255 .588235294117647 81 1 649
 2690 570 622 0 0 621 647 816 83 3 815 .647058823529412 .619607843137255 .588235
294117647 81 1 621 2689 570 619 0 0 639 649 817 83 3 816 .647058823529412 .61960
7843137255 .588235294117647 81 1 639 2688 570 583 0 0 581 621 818 83 3 817 .6470
58823529412 .619607843137255 .588235294117647 81 1 581 2687 570 406 0 0 578 639
 819 83 3 818 .647058823529412 .619607843137255 .588235294117647 83 3 819 .64705
8823529412 .619607843137255 .588235294117647 15 645 579 0 327 390 384 17 327 0 6
45 327 327 0 820 325 0 0 +17 820 0 608 820 820 0 327 325 0 0 -15 608 612 0 820 6
03 741 15 631 524 0 333 626 721 17 333 0 631 333 333 0 821 331 0 0 +17 821 0 612
 821 821 0 333 331 0 0 -15 612 557 0 821 607 743 83 3 582 .647058823529412 .6196
07843137255 .588235294117647 83 3 573 .647058823529412 .619607843137255 .5882352
94117647 19 19 255 0 1 0 10 6 S74 4 CI16 index_map_offset0 0 1 dCCZ20 15 2 0 0 2
 792 0 0 0 0 0 0 0 0 0 0 0 0 0 0 0 0 0 0 80 2 13 822 823 8004 0 0 0 0 3 5 0 0 0
 FFTFFFFFFFFFFF2 3 83 1 14 7850 79 16 823 SDL/TYSA_DENSITY1 0 
